<?xml version="1.0" encoding="UTF-8" standalone="no"?>
<svg
   xmlns:dc="http://purl.org/dc/elements/1.1/"
   xmlns:rdf="http://www.w3.org/1999/02/22-rdf-syntax-ns#"
   xmlns:svg="http://www.w3.org/2000/svg"
   xmlns="http://www.w3.org/2000/svg"
   version="1.1"
   viewBox="0 0 759.72541 653.36282"
   height="184.39351mm"
   width="214.41139mm">
  
  <g
     transform="translate(-13.46485,-12.152614)"
     id="layer1">
    <g
       transform="matrix(1.0857479,0,0,1.0857479,-7.555493,-65.117578)"
       id="g4167">
      <path
         id="path4185"
         d="m 352.74712,671.91625 c -6.32872,-1.42709 -21.16937,-7.76587 -32.97924,-14.08618 -60.40467,-32.32691 -77.90081,-36.71851 -109.58765,-27.50689 -19.21932,5.58719 -19.41845,5.59815 -19.45385,1.06864 -0.067,-8.57403 -15.10939,-34.79568 -27.65525,-48.20822 -7.50295,-8.02124 -24.66885,-21.8336 -38.14645,-30.69412 -44.359042,-29.16277 -46.015259,-30.82222 -45.996312,-46.08619 0.01778,-14.34892 4.604048,-46.20119 6.99678,-48.5939 0.798155,-0.79816 13.463465,-2.73037 28.145132,-4.29381 37.49222,-3.99256 54.26649,0.94145 70.95134,20.86966 6.6013,7.88453 14.14056,14.36386 16.75391,14.3985 9.0103,0.11959 28.82051,11.00698 41.80512,22.97575 7.16098,6.60078 25.902,29.10601 41.64669,50.01164 38.72647,51.42054 42.44065,54.44155 72.41668,58.90123 45.60467,6.78483 96.51879,1.68315 136.56525,-13.68412 8.78951,-3.37286 -7.66458,15.69634 -26.42412,30.62372 -39.10293,31.11517 -77.88895,42.68113 -115.03803,34.30429 z m -1.84913,-72.93376 c -12.4488,-3.88963 -13.95796,-5.45967 -22.22121,-23.11784 -9.97327,-21.31239 -40.52788,-61.07213 -63.97172,-83.24433 -17.52604,-16.57539 -30.56164,-23.94399 -54.59329,-30.85976 l -16.48962,-4.74537 0,-22.34146 c 0,-30.13777 5.63602,-47.47613 21.11756,-64.96499 6.98116,-7.88634 13.25833,-13.69356 13.94926,-12.90492 0.69092,0.78863 5.91292,9.22128 11.60443,18.73923 5.69151,9.51792 19.32768,27.67953 30.30259,40.3591 21.77954,25.16244 43.77144,39.15677 76.30156,48.55381 36.32095,10.4921 77.26625,-1.12941 114.08413,-32.3805 10.82244,-9.1861 23.05785,-16.24403 35.847,-20.6781 27.8214,-9.64582 39.50786,-15.98489 64.41436,-34.9401 12.13071,-9.23212 22.93967,-16.78568 24.0199,-16.78568 1.08022,0 1.33947,14.51803 0.57613,32.26229 -2.47103,57.44003 -15.76164,93.99095 -51.90878,142.756 -20.37319,27.48495 -34.31223,39.70121 -57.31708,50.23317 -30.46049,13.94528 -100.87658,21.8203 -125.71522,14.05945 z m 191.51545,-4.51308 c -3.37819,-16.89096 -1.86028,-19.77226 23.63829,-44.87037 29.91962,-29.44972 43.96453,-49.74755 53.60614,-77.47196 14.35283,-41.2716 12.40295,-79.51693 -7.67645,-150.56522 -14.89342,-52.69854 -18.34537,-78.52053 -14.14189,-105.78724 5.78802,-37.54501 18.28383,-54.03933 40.85992,-53.93455 16.01839,0.0743 17.0852,2.30322 10.78728,22.53845 -3.19849,10.27679 -5.62628,26.25451 -5.62628,37.02767 0,17.52453 1.52719,22.18224 20.29705,61.903 11.16339,23.62394 24.20958,54.63068 28.99154,68.90389 7.75648,23.15151 8.5699,28.79973 7.53971,52.35385 -1.07555,24.59216 -2.07052,28.23513 -14.5098,53.1274 -7.49352,14.99529 -20.335,34.66548 -29.25835,44.81704 -16.64652,18.93771 -17.4182,20.72177 -20.24079,46.79472 l -1.74676,16.13505 -20.47572,2.01762 c -23.32417,2.2983 -36.06913,7.94736 -55.10942,24.4266 -7.33708,6.35019 -13.74558,11.5458 -14.24112,11.5458 -0.49555,0 -1.70755,-4.03279 -2.69335,-8.96175 z M 59.190549,411.30442 c -31.431,-79.53924 -23.474045,-115.3064 43.385371,-195.02083 25.06423,-29.88332 37.13189,-52.4809 37.65355,-70.50907 0.25735,-8.89416 -2.20547,-15.80869 -10.21442,-28.6776 C 119.64434,100.43311 119.56981,100.10573 125.71341,98.200414 191.8149,77.7004 205.88058,75.048536 255.99593,73.63769 c 52.98014,-1.491496 61.5852,0.837957 32.86432,8.896623 -31.6213,8.872482 -78.45915,49.834117 -94.53962,82.678787 -9.6342,19.67807 -16.48251,43.56311 -19.57636,68.27705 -1.73897,13.89106 -3.76693,17.66955 -16.99936,31.67324 -25.08718,26.54939 -28.64735,35.79972 -28.64735,74.43387 0,30.33232 0.79577,35.214 9.91495,60.82312 5.45322,15.31415 9.3247,28.36349 8.60328,28.99853 -0.72142,0.63506 -18.89882,1.9142 -40.39423,2.84255 l -39.082548,1.68791 -8.948463,-22.64495 z m 280.217271,5.98969 c -13.13225,-2.68959 -23.76584,-9.54001 -30.31839,-19.53189 -3.99702,-6.09502 -5.04691,-13.75925 -5.00312,-36.52401 0.0642,-33.47883 5.93443,-76.4677 10.87004,-79.60583 1.87735,-1.19364 7.60745,-2.19001 12.73357,-2.21416 10.49248,-0.0494 11.25051,-1.74736 4.85598,-10.87686 -5.9769,-8.53321 -14.75101,-8.02881 -30.10436,1.73062 -12.26903,7.79887 -38.80466,34.65885 -47.79376,48.37796 -7.08117,10.80724 -10.37894,8.03256 -8.33557,-7.01334 4.48468,-33.02189 18.06224,-55.8332 40.07259,-67.32496 15.40349,-8.04228 50.16796,-8.76596 64.15225,-1.33543 16.8938,8.97648 31.00172,25.52041 39.59791,46.43525 4.53792,11.04088 13.20148,27.49465 19.25234,36.56394 6.05088,9.06929 9.98562,16.48408 8.74391,16.47734 -5.34109,-0.029 -27.87382,-17.47271 -40.347,-31.23452 -16.50014,-18.20482 -30.33247,-22.21121 -40.74289,-11.80077 l -6.35003,6.35002 18.59983,11.1393 c 10.22991,6.12659 22.61289,15.7099 27.51777,21.29624 18.26906,20.80732 26.96881,47.81688 19.79626,61.46022 -7.49991,14.26608 -33.8971,22.40291 -57.19733,17.63088 z m 99.17878,-19.34505 c 1.00016,-2.60642 3.83537,-12.76819 6.30047,-22.58175 4.09298,-16.29429 4.07678,-19.42961 -0.18669,-36.12666 -9.79163,-38.34593 -23.92403,-57.22341 -72.83021,-97.28346 -18.38432,-15.05897 -33.21121,-28.59851 -32.94866,-30.08787 0.85433,-4.84607 27.80038,-12.5508 44.32188,-12.67302 14.54505,-0.1076 18.19098,1.23856 37.28088,13.76513 49.19697,32.2824 76.1774,79.12554 68.74175,119.34862 -3.96046,21.42403 -9.64545,31.41688 -29.83439,52.44155 -17.03619,17.74145 -24.37051,22.38499 -20.84492,13.19746 z M 277.14146,380.77493 c -9.59363,-9.59363 -11.56436,-13.71468 -13.33482,-27.88492 -2.43675,-19.50314 0.53806,-26.89026 15.39095,-38.21912 l 9.9916,-7.62096 -2.05975,6.95343 c -5.02791,16.97356 -5.23701,42.03236 -0.48708,58.37156 2.65269,9.1249 4.13307,17.28072 3.28975,18.12404 -0.84332,0.84332 -6.59911,-3.53248 -12.79065,-9.72403 z m -113.1836,-13.91554 c -7.91526,-57.74808 5.40011,-101.38325 39.05523,-127.98609 19.32969,-15.27924 62.18419,-35.88086 88.1129,-42.35888 27.29665,-6.81978 58.72615,-10.57898 56.35371,-6.74031 -0.9576,1.54941 -17.295,8.32085 -36.30538,15.04763 -54.94933,19.44373 -65.77206,29.37087 -84.91356,77.88696 -7.23993,18.35031 -7.36572,19.61413 -3.17615,31.90985 l 4.36235,12.8028 -14.19707,6.64956 c -13.50422,6.32502 -28.31898,19.98625 -41.43348,38.20731 l -5.97749,8.30503 -1.88106,-13.72386 z m 350.85339,-0.18661 c 0,-0.66093 2.72288,-11.1267 6.05086,-23.25727 7.49558,-27.32164 6.3134,-42.82062 -5.13162,-67.27811 -22.14261,-47.31763 -91.22161,-96.57031 -148.21352,-105.67481 -29.00025,-4.63282 -48.34461,-1.15415 -121.8065,21.90431 -22.61264,7.09773 -41.79599,12.22285 -42.62968,11.38917 -3.11625,-3.11625 32.66935,-57.2782 46.51761,-70.40499 16.35798,-15.50575 45.73287,-28.29741 82.27226,-35.826499 62.75091,-12.930067 111.42351,1.213495 155.68535,45.239939 36.0106,35.81909 81.45493,110.18595 86.9848,142.3453 4.79977,27.91337 -8.50959,59.07135 -30.39708,71.16134 -11.84419,6.54236 -29.33248,12.74392 -29.33248,10.40162 z M 737.43628,186.88905 c -2.41454,-9.00974 -1.87482,-25.43201 1.06024,-32.2623 1.67242,-3.89195 2.52942,1.40831 2.66619,16.48962 0.20791,22.93138 -0.73659,26.92932 -3.72643,15.77268 z m -183.91511,-6.57677 c -20.05353,-32.60268 -40.53576,-53.69395 -63.32295,-65.20595 -7.75594,-3.91828 -31.24296,-12.65352 -52.19335,-19.411667 -21.51238,-6.939436 -37.00892,-13.370207 -35.60409,-14.775031 1.36812,-1.368125 20.44506,-2.737732 42.39323,-3.04357 59.02733,-0.822526 81.7366,8.28839 126.93468,50.925948 23.10342,21.79462 23.05595,19.72994 1.01934,44.34087 l -14.01153,15.64838 -5.21533,-8.47898 z"
         style="fill:#fcfafc" />
      <path
         id="path4183"
         d="m 355.17565,672.30827 c -6.57029,-1.39531 -30.07325,-11.93395 -52.22882,-23.41922 -36.70773,-19.02896 -42.06192,-20.98279 -60.32891,-22.01496 -13.55848,-0.76612 -24.43193,0.36168 -33.59791,3.48485 -16.45696,5.60747 -18.26562,5.6841 -18.26562,0.77398 0,-8.78894 -17.91721,-38.6839 -30.75447,-51.31395 -7.58875,-7.46627 -28.61546,-23.59742 -46.72601,-35.847 l -32.928272,-22.27196 -0.902992,-12.6211 c -0.496647,-6.94159 0.571545,-21.36315 2.373762,-32.04788 l 3.276754,-19.4268 10.531157,-1.52875 c 30.982161,-4.49745 41.750381,-4.8133 56.941641,-1.67024 14.38616,2.97648 18.65229,5.51568 31.01903,18.46247 9.95964,10.4268 18.0774,16.05578 26.5802,18.43109 18.9038,5.28092 39.65201,24.44484 70.35464,64.98252 34.61329,45.70105 46.24105,57.82003 59.25776,61.76125 5.57561,1.68819 29.49485,3.71125 53.15387,4.4957 39.53749,1.31094 45.31918,0.83076 71.49007,-5.93761 15.66052,-4.05014 28.92924,-6.90829 29.48611,-6.35146 2.03444,2.03448 -31.44812,32.15854 -45.84622,41.24762 -29.87076,18.85647 -65.01404,26.73048 -92.88577,20.81145 z m -2.04698,-73.25323 c -16.54863,-4.52033 -16.25325,-4.23089 -24.52746,-24.0371 -8.24312,-19.73191 -46.53704,-68.26028 -69.67845,-88.30076 -14.37173,-12.44594 -22.34925,-16.82621 -41.54398,-22.81082 l -23.75663,-7.40691 0,-21.33421 c 0,-11.73378 1.39006,-26.85459 3.08902,-33.60177 3.44896,-13.69708 21.85845,-39.93726 28.98142,-41.30899 3.02517,-0.58262 7.62367,4.37069 13.35112,14.38124 11.34663,19.83185 46.76339,60.48272 59.61531,68.42564 58.86673,36.38163 108.04537,33.35224 161.44676,-9.94508 13.94672,-11.30789 25.59209,-17.6746 44.71193,-24.44475 19.64941,-6.95768 32.38063,-14.01865 53.05356,-29.42445 l 27.2001,-20.26999 0.82838,23.0089 c 1.0426,28.95898 -8.02709,75.64491 -19.50016,100.37615 -20.56852,44.33732 -57.95287,87.61915 -87.70668,101.54264 -30.40663,14.229 -98.74887,22.47498 -125.56424,15.15026 z m 189.25093,-4.75477 c -3.2974,-16.48712 -1.73998,-19.23186 27.67592,-48.77451 22.92502,-23.02384 31.81616,-34.31777 40.2043,-51.06947 24.85508,-49.63731 24.95531,-94.46407 0.40011,-178.96057 -13.53723,-46.58272 -16.64969,-70.56809 -12.77363,-98.4361 5.61387,-40.36213 19.5334,-57.64187 43.80993,-54.3857 14.13367,1.89572 14.47789,2.29686 10.59477,12.34637 -1.76052,4.55623 -4.95144,16.54993 -7.09099,26.65267 -5.25394,24.80895 -2.13256,39.27121 16.98884,78.71418 33.81154,69.74529 40.15772,90.37828 38.49494,125.15658 -1.05112,21.98539 -2.5692,27.7729 -12.86153,49.03376 -6.53084,13.49069 -19.57066,33.44132 -29.61157,45.30498 -17.40558,20.56528 -18.02634,21.86096 -20.76987,43.35147 l -2.82804,22.15261 -19.57472,1.81931 c -25.17489,2.33975 -29.40358,4.08182 -52.06023,21.44723 l -18.83969,14.43983 -1.75854,-8.79264 z M 58.415115,408.02599 C 28.558163,331.39251 36.049812,297.28464 99.616998,220.44261 c 25.872322,-31.27528 38.465132,-52.80582 41.375812,-70.74224 1.16891,-7.20315 -0.90749,-14.10763 -8.79123,-29.23274 -5.67688,-10.8912 -9.81087,-20.31291 -9.18664,-20.937137 0.62423,-0.624228 20.31507,-6.370402 43.75743,-12.769268 39.82792,-10.871506 45.77187,-11.729155 90.65744,-13.080888 34.28906,-1.032617 48.03498,-0.531227 48.03498,1.752101 0,1.759273 -1.88733,3.198679 -4.19407,3.198679 -11.29814,0 -36.90091,13.230264 -58.20647,30.078273 -40.34664,31.90531 -56.98271,60.26144 -66.47691,113.30972 -4.65619,26.01616 -5.49447,27.8898 -18.6042,41.58251 -7.55057,7.88634 -17.1387,20.79126 -21.30695,28.6776 -7.03005,13.30087 -7.56101,16.82979 -7.33519,48.75192 0.22036,31.15012 1.1041,36.77062 9.32022,59.27648 4.99223,13.67485 9.07677,25.42022 9.07677,26.10083 0,0.6806 -10.64655,2.06134 -23.65901,3.06833 -13.01246,1.00698 -30.756729,2.63292 -39.431703,3.61318 l -15.772679,1.78228 -10.459483,-26.84625 z m 281.467115,8.66999 c -27.74942,-5.33708 -35.88158,-18.29786 -35.77957,-57.0244 0.0823,-31.22171 6.26757,-74.99125 11.03717,-78.10254 1.77644,-1.1588 7.42397,-2.12667 12.55009,-2.15082 10.49248,-0.0494 11.25051,-1.74736 4.85598,-10.87686 -5.63624,-8.04685 -16.25934,-8.21252 -28.82024,-0.44945 -9.96661,6.15971 -52.74831,50.5857 -52.74831,54.77567 0,1.31498 -1.4659,2.39088 -3.25756,2.39088 -4.10515,0 -1.4478,-21.53008 5.10037,-41.32367 13.48033,-40.74795 66.70193,-59.85575 102.83042,-36.91854 18.86361,11.9761 23.35693,17.44408 33.26034,40.47492 5.20183,12.09703 13.71905,28.42983 18.92719,36.29513 5.20811,7.86529 9.46931,15.27368 9.46931,16.46312 0,4.93372 -28.88471,-16.08297 -34.42556,-25.04825 -7.01592,-11.35197 -22.08709,-21.48807 -31.95026,-21.48807 -6.96462,0 -19.65698,7.12702 -19.65698,11.03781 0,1.16009 8.33363,6.98426 18.51919,12.94257 36.1318,21.13619 56.41985,56.20996 46.39393,80.20531 -6.83043,16.34752 -29.57059,23.93917 -56.30551,18.79719 z m 103.70568,-34.79926 c 4.76814,-17.8609 5.09358,-23.17744 2.30892,-37.7214 -7.56191,-39.49502 -23.1503,-61.11263 -73.98327,-102.59819 -19.44616,-15.87032 -34.28682,-29.81799 -32.97924,-30.99481 5.43584,-4.89218 31.68327,-11.50529 45.66446,-11.50529 13.27412,0 17.53873,1.68359 36.6599,14.47258 51.44285,34.40709 77.02229,82.24012 66.31967,124.0165 -2.3906,9.33149 -7.11738,21.02624 -10.50392,25.98836 -7.19435,10.54151 -34.31234,39.1335 -37.11604,39.1335 -1.05651,0 0.57679,-9.35606 3.62952,-20.79125 z m -164.97207,8e-5 c -8.4376,-7.42027 -11.2698,-12.60214 -13.89276,-25.41873 -3.96132,-19.35623 -0.30577,-31.01477 12.60796,-40.21015 10.29808,-7.33286 11.62048,-6.29387 8.01038,6.29378 -4.10087,14.29891 -3.45808,33.91588 1.67803,51.21102 2.4732,8.32821 3.97874,15.66018 3.34564,16.29327 -0.6331,0.63311 -5.92026,-3.04304 -11.74925,-8.16919 z M 163.33737,360.71151 c -5.21186,-41.71435 3.09849,-79.21476 23.47467,-105.92931 13.24771,-17.36864 55.46272,-43.0372 88.64118,-53.89769 13.21147,-4.32458 58.05135,-13.26528 66.5755,-13.2746 9.86369,-0.0109 1.12009,5.58311 -20.07432,12.84297 -33.31341,11.41106 -56.5631,22.2178 -67.22109,31.24519 -8.7891,7.44443 -24.83761,37.2678 -32.25188,59.93453 -2.91899,8.92389 -2.7939,13.01607 0.71244,23.3066 l 4.25309,12.48215 -14.32486,6.70941 c -13.2032,6.18404 -42.44203,33.8168 -42.44203,40.11073 0,1.45014 -1.19763,2.63665 -2.6614,2.63665 -1.46378,0 -3.57036,-7.27499 -4.6813,-16.16663 z m 352.37184,0.75646 c 6.21027,-16.18371 10.9604,-42.34178 9.8371,-54.17106 -0.72723,-7.6581 -5.87111,-22.91466 -11.70728,-34.72335 -23.25779,-47.05894 -91.67233,-94.41243 -148.14352,-102.53829 -25.76312,-3.70716 -50.15405,0.51508 -110.93275,19.20322 -27.84731,8.56244 -51.12545,15.0741 -51.72921,14.47034 -2.84507,-2.84508 30.5541,-53.46008 44.80032,-67.89295 16.87227,-17.09333 33.46053,-25.12293 74.83747,-36.225342 28.57405,-7.667091 76.35721,-6.978085 100.86652,1.454442 49.69013,17.09607 96.19886,66.85548 136.05648,145.56603 12.07605,23.8477 14.0507,30.20523 14.92347,48.04733 0.89007,18.19545 0.0551,22.37384 -7.25202,36.29136 -8.94939,17.04545 -25.6848,29.87041 -43.61564,33.42423 -8.43959,1.67271 -9.54299,1.26893 -7.94094,-2.90596 z M 736.83187,183.0828 c -1.05849,-5.64229 -0.62672,-15.64361 0.95953,-22.22514 2.75537,-11.43227 2.89947,-10.97434 3.22849,10.25871 0.37178,23.99216 -1.12803,28.27756 -4.18802,11.96643 z M 548.10316,170.91415 C 524.83812,132.61573 498.05622,114.4815 435.16763,94.444558 410.33498,86.532627 401.26448,82.509556 404.3569,80.778949 c 2.41047,-1.348957 21.4737,-2.677393 42.36278,-2.952072 57.21944,-0.752412 77.78426,7.715326 125.12148,51.519883 l 21.18291,19.60207 -16.50012,19.32858 c -9.07508,10.63072 -16.90082,19.32858 -17.39058,19.32858 -0.48975,0 -5.45333,-7.51133 -11.03021,-16.69184 z"
         style="fill:#faf9fa" />
      <path
         id="path4181"
         d="m 352.19034,670.72541 c -8.2122,-2.21225 -31.70896,-12.72861 -52.21502,-23.36966 -33.61102,-17.44155 -39.24955,-19.45847 -57.23999,-20.47503 -13.78197,-0.77874 -24.52418,0.38958 -34.7205,3.77626 -8.12033,2.69713 -15.09692,4.44979 -15.50353,3.89477 -0.4066,-0.555 -3.0204,-7.1643 -5.80844,-14.68732 -5.77587,-15.58513 -22.28261,-38.72199 -34.61239,-48.51484 -4.59338,-3.64825 -22.61507,-16.31188 -40.04821,-28.14139 -30.269487,-20.53978 -31.737336,-22.00308 -32.600844,-32.49997 -1.10964,-13.4888 3.983155,-47.72171 7.644157,-51.38269 5.31311,-5.31313 48.174897,-8.50053 65.660747,-4.88288 14.18032,2.93381 18.51562,5.524 30.83867,18.42505 9.95964,10.4268 18.0774,16.05578 26.5802,18.43109 18.95346,5.2948 39.67183,24.48006 70.16338,64.97142 39.67309,52.68407 47.78226,59.85625 72.58456,64.19767 34.46325,6.03248 79.01347,4.47614 111.5084,-3.89548 15.66052,-4.03459 28.91829,-6.891 29.46173,-6.34756 0.54344,0.54344 -7.96945,9.43815 -18.91755,19.76604 -22.29959,21.03631 -52.84281,37.71514 -77.40709,42.26998 -19.72528,3.65756 -27.00575,3.41117 -45.36828,-1.53546 z m 12.06352,-68.85187 c -1.57727,-0.55064 -8.18579,-2.36608 -14.6856,-4.03428 -10.81541,-2.77582 -12.4506,-4.49212 -19.27751,-20.23365 -9.3119,-21.47144 -47.77987,-70.46109 -71.36799,-90.88843 -14.43499,-12.50071 -22.3243,-16.81841 -41.85999,-22.90933 l -24.07264,-7.50547 1.20309,-27.52413 c 0.90594,-20.72616 2.70224,-30.4033 7.27293,-39.1814 6.67226,-12.81418 21.51544,-29.92527 25.95899,-29.92527 1.55333,0 8.01671,8.71082 14.36307,19.35738 17.08001,28.65316 52.25658,63.50634 75.32674,74.63422 50.94661,24.57409 94.97736,18.27047 142.99883,-20.47234 13.77881,-11.11647 25.82642,-17.69944 44.77875,-24.46775 19.26885,-6.88133 32.89513,-14.3879 53.05356,-29.22663 l 27.12528,-19.96707 0.82838,22.73274 c 1.03498,28.40183 -8.05519,75.47149 -19.17493,99.28924 -8.54994,18.31346 -28.98677,49.34907 -45.92583,69.74352 -13.17471,15.86223 -39.71707,33.64894 -58.61325,39.27824 -22.72588,6.77018 -89.0023,14.41786 -97.93188,11.30041 z m 178.13647,-7.51973 c -3.29764,-16.48813 -1.79677,-19.17608 26.44582,-47.36257 64.68255,-64.55408 74.6707,-117.53433 42.88362,-227.4683 -13.40093,-46.34633 -17.15571,-74.55202 -13.64575,-102.50551 3.27613,-26.09116 8.16675,-37.67448 20.17157,-47.77587 8.15708,-6.86373 11.42699,-7.85108 22.03979,-6.65486 6.85392,0.77254 13.05694,1.99989 13.78449,2.72745 0.72758,0.72756 -0.57037,6.68879 -2.88428,13.24716 -13.68755,38.79462 -11.34058,58.33914 12.76532,106.30408 8.01702,15.95196 19.30487,40.92226 25.08407,55.48956 9.80894,24.72482 10.51561,28.58365 10.62723,58.03138 0.11872,31.32767 0.037,31.71358 -11.86238,55.92132 -6.60129,13.4296 -19.96072,33.74114 -29.74951,45.23085 -17.24547,20.24209 -17.85484,21.51603 -20.73826,43.3558 l -2.97071,22.5009 -19.23206,1.61234 c -24.10186,2.02063 -34.45702,6.36499 -54.79546,22.98865 l -16.15429,13.20374 -1.76921,-8.84612 z M 58.359633,408.01484 C 38.357639,356.96808 36.72457,323.50944 52.581177,289.62466 c 10.945522,-23.39005 20.439614,-37.22934 49.808963,-72.60527 23.32251,-28.09239 35.75556,-49.77433 38.60267,-67.31902 1.16891,-7.20315 -0.90749,-14.10763 -8.79123,-29.23274 -5.67688,-10.8912 -9.82863,-20.29515 -9.22611,-20.897671 0.60252,-0.602522 20.29337,-6.330035 43.75743,-12.727809 39.42432,-10.749537 46.19849,-11.745682 89.26303,-13.126135 28.0536,-0.899275 46.6011,-0.426872 46.6011,1.186922 0,1.47441 -7.11162,4.922484 -15.80359,7.662388 -17.88543,5.637887 -55.66183,32.682895 -71.79276,51.398125 -21.51418,24.96091 -32.90435,51.54065 -38.91645,90.81418 -3.31883,21.68003 -4.21471,23.55014 -18.77785,39.19837 -24.70783,26.54876 -28.25838,36.34138 -27.93818,77.05514 0.24436,31.07218 1.14921,36.82694 9.32022,59.27648 4.97726,13.67485 9.04957,25.42088 9.04957,26.10229 0,0.68141 -11.2918,2.03382 -25.09289,3.00538 -13.8011,0.97154 -31.545363,2.59177 -39.431702,3.60051 l -14.3388,1.83407 -10.514965,-26.83503 z m 267.179467,3.98891 c -6.49567,-3.24496 -12.37283,-9.56748 -16.65683,-17.91906 -5.76773,-11.24402 -6.46646,-16.04219 -5.42902,-37.28087 1.56798,-32.09958 7.92879,-72.58775 11.81959,-75.23478 1.70328,-1.1588 7.29096,-2.12667 12.41708,-2.15082 10.5899,-0.0499 12.24089,-5.11508 4.07584,-12.50437 -7.04291,-6.37373 -16.46129,-5.97803 -28.0401,1.17806 -9.96661,6.15971 -52.74831,50.5857 -52.74831,54.77567 0,1.31498 -1.45675,2.39088 -3.23722,2.39088 -5.65907,0 -0.0855,-28.80992 9.32652,-48.20935 22.09427,-45.53902 76.29057,-53.44143 116.4097,-16.97379 3.49511,3.17699 10.4235,15.54997 15.39646,27.49551 4.97292,11.94556 13.40511,28.19847 18.73817,36.11759 5.33303,7.91912 9.69644,15.33018 9.69644,16.46906 0,4.7589 -29.25127,-16.58414 -34.60807,-25.2516 -6.93831,-11.22645 -22.02841,-21.19278 -32.08814,-21.19278 -3.97658,0 -10.2767,2.58119 -14.00032,5.73595 -6.06402,5.13768 -6.27683,6.03302 -2.04021,8.58424 2.60146,1.56657 12.9254,8.34145 22.94208,15.05531 40.23459,26.96795 54.11472,72.02465 27.23672,88.41389 -12.06633,7.35758 -44.92862,7.63579 -59.21038,0.50126 z M 443.62654,382.1826 c 5.07843,-17.94552 5.39176,-22.68908 2.50992,-37.99781 -7.49867,-39.83362 -26.86167,-65.73656 -81.45516,-108.96693 -15.53758,-12.30358 -27.15201,-23.37418 -25.80984,-24.60134 6.48713,-5.93123 34.09354,-12.12187 48.66675,-10.91334 12.66881,1.05059 19.20845,3.81065 35.65543,15.04836 57.16455,39.05881 80.14104,94.89988 58.13176,141.28096 -4.97373,10.48138 -36.90535,46.65547 -41.18373,46.65547 -1.27489,0 0.29329,-9.22741 3.48487,-20.50537 z m -164.97662,-0.28591 c -8.52898,-7.52483 -11.18032,-12.48187 -13.76303,-25.73192 -2.43349,-12.48448 -2.37112,-18.31736 0.26065,-24.37596 3.41088,-7.85219 19.35224,-22.71587 21.76991,-20.29821 0.68349,0.68348 -0.0258,5.66543 -1.57602,11.07099 -4.10087,14.29891 -3.45808,33.91588 1.67803,51.21102 2.4732,8.3282 3.97874,15.66018 3.34564,16.29326 -0.6331,0.63312 -5.90493,-3.04303 -11.71517,-8.16918 z M 163.90047,363.57285 c -6.63976,-48.44234 3.27238,-88.05033 28.5294,-114.00085 22.81717,-23.44368 68.20561,-46.68971 106.37096,-54.47871 51.30047,-10.46968 62.21909,-7.97572 23.15357,5.28858 -37.82088,12.8417 -63.91877,26.27448 -73.40384,37.78152 -4.70789,5.71149 -13.40179,21.93115 -19.31977,36.0437 -10.7053,25.52879 -10.73787,25.72828 -6.40919,39.26439 l 4.35078,13.60523 -17.85075,9.25517 c -13.26214,6.87609 -20.70722,13.24154 -28.96309,24.76302 -6.11179,8.52932 -11.90481,15.56982 -12.87337,15.6455 -0.96856,0.0757 -2.58168,-5.84972 -3.5847,-13.16755 z m 352.07848,-2.72971 c 6.60107,-16.95976 10.81693,-41.25114 9.45291,-54.46704 -4.24374,-41.11781 -45.77392,-88.64637 -102.38892,-117.17731 -53.8727,-27.14895 -80.96483,-27.11932 -168.92639,0.18478 -27.4529,8.52164 -50.40278,15.00548 -50.99973,14.40853 -2.76675,-2.76676 30.91004,-53.77365 44.98478,-68.13399 16.58445,-16.92098 33.05759,-24.89478 74.56974,-36.095366 27.46282,-7.40987 79.01614,-6.656409 101.29358,1.480416 23.1239,8.446 53.49124,29.31134 70.92326,48.73125 19.81757,22.0775 51.13772,69.21835 66.24723,99.7106 10.51281,21.2157 12.52732,28.11293 13.25367,45.37735 0.74286,17.65613 -0.2125,22.44154 -7.19567,36.04613 -8.73628,17.01987 -25.47477,29.88432 -43.54326,33.46544 -8.82877,1.74985 -9.59011,1.39944 -7.6712,-3.53067 z M 736.83187,183.08268 c -1.05849,-5.64229 -0.62672,-15.6436 0.95953,-22.22514 2.75537,-11.43227 2.89947,-10.97434 3.22849,10.25872 0.37178,23.99216 -1.12803,28.27755 -4.18802,11.96642 z M 547.8229,170.05107 C 523.92207,131.27554 494.64075,111.90954 430.79449,92.651141 409.36005,86.185711 401.15324,82.571706 404.12682,80.907593 c 2.36255,-1.322143 22.1032,-2.568196 43.86812,-2.769008 33.29252,-0.307166 42.15705,0.567315 55.85806,5.510369 20.83427,7.516596 41.45737,21.321626 67.61461,45.260996 l 20.80935,19.04493 -5.59448,7.63752 c -3.07697,4.20063 -10.54223,13.28802 -16.58948,20.19419 l -10.99499,12.55667 -11.27511,-18.29219 z"
         style="fill:#f8f5f8" />
      <path
         id="path4179"
         d="m 358.51834,672.10386 c -8.65019,-1.4157 -30.26338,-10.57257 -54.47852,-23.08091 -36.49368,-18.85085 -42.00498,-20.85392 -60.67427,-22.05204 -14.41698,-0.92523 -24.61045,0.0708 -34.21595,3.34389 -7.52478,2.56395 -13.95349,4.66172 -14.28604,4.66172 -0.33254,0 -5.22783,-9.73516 -10.87842,-21.63369 -12.61952,-26.57313 -26.46996,-40.27081 -70.66026,-69.88097 l -32.979242,-22.09807 0.678036,-22.77397 c 0.934766,-31.3971 3.472395,-39.11475 13.823551,-42.04133 4.64227,-1.31252 20.073655,-2.55839 34.291955,-2.76862 31.19459,-0.46122 41.52961,3.59184 55.88379,21.91591 5.51819,7.04433 12.34283,12.85671 15.16589,12.91641 6.99352,0.14798 26.97984,10.5326 40.0195,20.7937 5.90657,4.64798 23.5987,25.44672 39.31585,46.21948 47.80604,63.18341 45.87598,61.82997 96.94261,67.97991 30.84399,3.71452 63.8351,0.67593 95.70225,-8.81452 11.13723,-3.31682 20.82008,-5.46002 21.51746,-4.76266 2.73983,2.73983 -39.67439,38.7952 -55.66043,47.31568 -16.51804,8.80402 -47.90665,17.99439 -59.43344,17.40168 -3.15453,-0.16231 -12.18798,-1.35091 -20.07432,-2.6416 z m 5.73552,-70.4294 c -1.57727,-0.44115 -8.18579,-2.167 -14.6856,-3.8352 -10.86579,-2.78876 -12.43555,-4.45742 -19.48553,-20.71334 -9.0278,-20.81636 -47.05458,-70.3395 -67.30228,-87.64927 -19.11743,-16.34353 -29.91502,-22.24977 -51.59514,-28.22234 l -18.28385,-5.0369 1.34409,-27.48166 c 0.98761,-20.19307 2.91798,-30.52398 7.27845,-38.9527 5.80823,-11.22725 25.29546,-32.36464 27.58,-29.91546 0.63506,0.68083 6.13898,9.09874 12.23094,18.70651 18.35695,28.9511 44.00461,56.61253 63.36794,68.34342 55.4607,33.59971 106.55629,28.20229 159.92258,-16.89326 9.35457,-7.90478 21.31672,-14.3991 34.41311,-18.68305 27.40879,-8.96568 33.8944,-12.45967 59.26955,-31.92998 12.09377,-9.27956 23.57889,-16.87189 25.52251,-16.87189 2.69157,0 3.10825,7.34806 1.74828,30.82841 -1.85025,31.94478 -9.25246,66.48104 -18.9456,88.39403 -9.12022,20.61776 -39.16127,62.30629 -57.51069,79.80869 -20.67213,19.71786 -40.74418,29.07642 -74.0266,34.51481 -24.34771,3.97847 -65.1044,7.194 -70.84216,5.58918 z m 177.88531,-11.96989 -1.86622,-13.56906 29.6483,-30.0855 c 43.21261,-43.84982 59.48589,-78.72431 59.53633,-127.58936 0.0295,-28.52687 -4.00927,-50.75697 -18.99139,-104.5332 -12.93214,-46.418 -13.12402,-47.73459 -11.91099,-81.73114 1.0055,-28.17973 2.37345,-36.75127 7.41638,-46.47006 7.87905,-15.18463 19.02073,-23.94207 30.38927,-23.88618 16.50379,0.0811 17.76262,2.75796 11.66516,24.80514 -2.98152,10.78067 -5.36942,27.49315 -5.30642,37.13885 0.10238,15.65817 2.28076,22.11207 20.32789,60.22295 33.85525,71.49361 39.6524,90.38905 37.54678,122.38175 -2.15343,32.71959 -17.38522,64.08239 -49.28119,101.47164 -11.8101,13.84408 -12.79434,16.29326 -14.69386,36.56394 l -2.03591,21.72594 -13.48137,0 c -21.49721,0 -40.17312,7.16114 -59.43131,22.78857 l -17.66523,14.33476 -1.86622,-13.56904 z M 65.166995,423.82531 C 54.734331,403.18714 44.093176,366.95009 42.5384,346.76666 39.571487,308.25144 52.614678,278.76514 95.817345,226.32075 c 46.523495,-56.4756 54.091005,-80.18636 35.062105,-109.85761 -5.32902,-8.30941 -9.2005,-15.57358 -8.60327,-16.1426 2.06472,-1.967208 75.70867,-21.341076 92.66392,-24.377541 20.12887,-3.60482 78.85121,-3.997143 84.26709,-0.562987 2.57923,1.635458 -0.45477,3.58213 -9.55314,6.129521 -33.48996,9.376608 -80.95422,51.538847 -97.31381,86.443307 -9.03312,19.27286 -18.79241,56.36161 -18.79241,71.41781 0,3.39454 -7.00902,13.86753 -15.73129,23.50596 -25.2839,27.93961 -28.74863,37.42164 -28.55758,78.15453 0.14645,31.22962 1.00866,36.7769 9.32021,59.96497 5.03735,14.05354 9.15882,25.80098 9.15882,26.10545 0,0.30447 -11.93705,1.36611 -26.52677,2.35925 -14.58973,0.9931 -31.905691,2.62896 -38.479913,3.6352 -11.647513,1.78274 -12.096598,1.54569 -17.564312,-9.2707 z M 325.63667,412.00375 c -5.46679,-2.75778 -12.44496,-9.35254 -15.50704,-14.65506 -7.8513,-13.59585 -9.45297,-45.59394 -3.5757,-71.4344 2.55552,-11.23568 4.64638,-24.85508 4.64638,-30.26534 0,-11.98053 3.89748,-15.56441 18.246,-16.7779 l 11.00388,-0.93063 -6.2298,-7.88634 c -12.79635,-16.19897 -26.96979,-9.78376 -63.13037,28.57413 l -26.45646,28.06413 1.92169,-15.77268 c 2.8993,-23.79677 16.53687,-49.81397 31.51184,-60.11702 38.12885,-26.23333 87.44486,-12.40706 107.55393,30.15391 4.80938,10.17907 8.74432,19.59435 8.74432,20.92287 0,1.32852 5.16197,10.40208 11.47104,20.16345 6.30907,9.76134 11.47104,18.38389 11.47104,19.16122 0,3.99095 -30.0602,-19.56945 -34.69763,-27.19508 -11.18492,-18.39215 -36.48788,-26.21319 -47.04944,-14.54281 -2.86358,3.1642 -4.67669,6.16316 -4.02918,6.66436 0.64754,0.5012 10.37602,6.94024 21.61887,14.30894 29.24186,19.16559 44.26981,41.05379 44.59974,64.95955 0.30926,22.40914 -12.13409,31.63025 -42.67372,31.62328 -12.85525,-0.003 -22.88671,-1.71303 -29.43939,-5.01858 z M 440.2495,398.35966 c 0,-0.91429 2.10445,-10.04019 4.67654,-20.27976 5.68631,-22.63735 2.76713,-42.00941 -10.37633,-68.85815 -11.61434,-23.7252 -25.72888,-38.99565 -65.08435,-70.41443 l -33.39911,-26.66362 12.65993,-5.69832 c 8.61495,-3.87765 19.07387,-5.73604 32.73424,-5.81639 19.70415,-0.11592 20.48788,0.16874 42.50241,15.43615 40.9229,28.38063 62.31714,60.92309 64.46695,98.05967 1.10036,19.00806 0.30743,24.07485 -5.84578,37.35358 -7.32988,15.81804 -27.26967,40.48115 -36.89187,45.63082 -2.99345,1.60204 -5.44263,2.16475 -5.44263,1.25045 z M 278.92965,381.72491 c -7.66667,-6.59929 -11.42402,-12.74424 -13.48457,-22.05333 -4.62996,-20.91707 -3.68069,-25.29866 8.25253,-38.09171 12.09412,-12.96552 16.50425,-13.27796 11.77309,-0.83409 -4.25501,11.19155 -3.56795,38.11138 1.38982,54.45437 2.35165,7.75207 3.92057,14.44984 3.48648,14.88393 -0.43409,0.4341 -5.5719,-3.32754 -11.41735,-8.35917 z M 163.47089,353.00599 c -4.14053,-49.70645 4.38017,-77.10922 32.75676,-105.34653 14.29159,-14.22144 25.54851,-22.07488 46.14642,-32.19423 29.75205,-14.61661 70.89226,-25.80638 89.81778,-24.42964 l 11.98769,0.87204 -22.94208,8.25235 c -61.66714,22.18189 -74.41353,32.21956 -91.54056,72.08736 -10.74938,25.0221 -11.36936,30.205 -5.85846,48.97501 1.48699,5.06466 -0.79887,7.2967 -14.64966,14.30452 -9.02636,4.56694 -19.77031,12.67126 -23.87544,18.00962 -4.10512,5.33837 -10.22749,13.06388 -13.60525,17.16785 l -6.14138,7.46171 -2.09582,-25.16006 z m 357.46097,-6.89421 c 8.41463,-30.34572 7.22879,-44.60262 -5.92141,-71.19081 -17.96586,-36.32493 -48.682,-64.39041 -96.82986,-88.47389 -27.2586,-13.63472 -41.41937,-17.01812 -71.13329,-16.99574 -27.85139,0.0209 -38.4422,2.35391 -102.52289,22.58348 -22.22461,7.01607 -40.83718,12.32768 -41.36128,11.80359 -1.48127,-1.48127 25.8579,-46.01008 36.49258,-59.43745 14.40942,-18.19338 29.50081,-27.61231 59.79478,-37.31951 79.35628,-25.428391 137.68955,-14.260732 187.92838,35.97809 38.9309,38.93092 83.95421,115.39049 86.86765,147.52063 2.7423,30.24252 -12.97885,58.39736 -38.78467,69.45903 -19.99319,8.57007 -20.60557,7.98306 -14.52999,-13.92742 z M 736.93962,180.61585 c -1.04958,-6.99911 -0.58529,-16.35517 1.03176,-20.79126 2.50117,-6.86148 2.97389,-4.96166 3.16649,12.72566 0.12446,11.43519 -0.33977,20.79126 -1.03176,20.79126 -0.69199,0 -2.11689,-5.72655 -3.16649,-12.72566 z M 549.3893,172.12157 C 536.17928,149.03288 513.45842,126.82468 491.72151,115.75498 481.55049,110.5753 456.52779,100.95946 436.11551,94.386454 402.59449,83.592275 399.92286,82.25142 408.51332,80.533325 c 5.23108,-1.046213 25.251,-1.902208 44.4887,-1.902208 51.35691,0 69.35468,7.561259 116.15099,48.797573 l 23.22421,20.46488 -8.46038,10.53599 c -4.6532,5.79479 -12.20364,14.95474 -16.77869,20.35542 l -8.31831,9.81944 -9.43054,-16.48285 z"
         style="fill:#f5f1f5" />
      <path
         id="path4177"
         d="m 341.31178,667.10306 c -7.88634,-2.73192 -24.66273,-10.82023 -37.28087,-17.974 -28.79106,-16.32298 -36.448,-19.60665 -53.06956,-22.75886 -12.63676,-2.3965 -38.44259,1.08031 -52.28076,7.04382 -3.80581,1.64007 -5.6987,0.21881 -8.03485,-6.03231 -13.26201,-35.48778 -25.02564,-48.56926 -73.26658,-81.47446 l -39.117217,-26.68192 1.931219,-22.13905 c 2.855729,-32.73751 4.83418,-38.16125 14.696277,-40.28853 16.109561,-3.47483 58.526021,-2.59133 68.124101,1.419 5.14569,2.15002 14.623,9.89297 21.06069,17.20656 6.43769,7.31359 13.47793,13.31008 15.64499,13.32548 9.24219,0.0657 33.75819,14.4702 46.76497,27.47698 7.72681,7.7268 24.77397,28.54356 37.88257,46.25946 36.06171,48.73631 42.0099,53.8951 67.38745,58.44431 32.28797,5.78797 82.68891,4.54658 108.56961,-2.6741 11.82951,-3.30042 24.73443,-6.86857 28.6776,-7.92921 6.25263,-1.68186 5.5192,-0.20877 -5.73552,11.5195 -17.31846,18.04716 -46.52777,37.6345 -66.60378,44.66344 -20.88524,7.3123 -55.17576,7.58256 -75.35034,0.59389 z m 6.79614,-69.71112 c -9.1356,-2.60742 -11.33342,-5.14114 -17.94799,-20.69117 -8.83354,-20.76642 -49.01834,-72.70634 -69.39196,-89.69094 -17.46819,-14.56242 -26.4301,-19.22075 -49.22232,-25.58526 l -17.9235,-5.00496 0,-20.60978 c 0,-28.34744 6.40957,-48.07668 20.63153,-63.50568 6.40437,-6.94793 12.46894,-12.63257 13.47683,-12.63257 1.00789,0 6.23905,7.42033 11.62481,16.48962 36.39689,61.29013 88.98005,95.07025 143.06855,91.90915 26.73647,-1.56259 50.19392,-11.84738 77.66382,-34.05124 12.34375,-9.97745 25.89492,-17.60991 41.15152,-23.17787 29.42602,-10.73918 33.84587,-13.15888 58.98377,-32.29146 11.56966,-8.80574 22.40629,-16.01044 24.08138,-16.01044 4.50683,0 0.38259,54.05285 -6.23732,81.74735 -7.2041,30.13852 -13.98222,45.39828 -32.1303,72.33575 -42.00468,62.34816 -74.82516,80.2396 -151.5714,82.62609 -19.87911,0.61818 -40.48428,-0.20877 -46.25742,-1.85659 z m 194.21117,-9.01652 -1.82097,-12.18798 29.69881,-30.11148 c 24.0041,-24.33761 31.9453,-34.62378 41.41441,-53.64379 15.64595,-31.42712 19.07057,-49.33821 16.885,-88.31032 -1.82874,-32.60929 -2.9137,-37.98545 -20.20977,-100.14349 -8.56247,-30.77157 -10.31028,-41.74309 -10.31028,-64.72102 0,-32.59338 5.41321,-53.72608 17.1176,-66.82556 6.94709,-7.77515 10.2219,-9.20175 21.12294,-9.20175 7.09565,0 13.76385,0.86267 14.81821,1.91703 1.05436,1.05437 -0.91674,13.2285 -4.38025,27.05361 -4.35736,17.39305 -5.74553,29.16203 -4.50622,38.20374 0.98507,7.18694 10.78257,31.96906 21.7722,55.07138 37.34262,78.50138 44.19987,111.23474 31.31494,149.48311 -7.4497,22.11405 -25.03159,52.44218 -36.98576,63.79903 -15.07209,14.31901 -20.30426,25.40127 -22.0989,46.80763 l -1.66121,19.8149 -20.79043,1.57237 c -23.16481,1.75197 -33.8525,6.26232 -53.40199,22.53646 -7.3166,6.09075 -13.94514,11.07411 -14.73013,11.07411 -0.78496,0 -2.24666,-5.48459 -3.2482,-12.18798 z M 63.330923,419.16951 C 49.545361,387.9979 43.124613,362.24138 43.137219,338.16338 c 0.02039,-38.94561 11.488493,-62.12363 59.439251,-120.13184 41.01641,-49.61941 47.03176,-71.55865 28.0697,-102.37593 -4.97713,-8.08887 -8.65216,-15.05468 -8.16673,-15.47959 2.289,-2.003641 80.31546,-21.974359 95.51867,-24.447816 19.5244,-3.176483 68.0732,-3.300763 78.8634,-0.20189 6.28765,1.805774 5.29273,2.517193 -8.08952,5.784435 -17.68415,4.31755 -51.38924,28.021261 -73.09332,51.404211 -21.84157,23.53108 -42.13084,74.38468 -42.13084,105.59795 0,4.89363 -5.24032,12.97573 -15.8286,24.41235 -8.70573,9.40323 -18.47149,22.27725 -21.70167,28.60895 -13.59334,26.64513 -12.36255,69.37053 3.21545,111.62035 4.67774,12.68671 8.50498,23.42903 8.50498,23.87181 0,0.44275 -12.58229,1.6222 -27.96065,2.62101 -15.37837,0.99879 -32.796592,2.65251 -38.707174,3.67495 l -10.746512,1.859 -6.992731,-15.81182 z m 262.163447,-7.48566 c -5.49584,-2.93859 -12.37324,-9.39733 -15.28313,-14.35274 -7.67472,-13.06973 -9.49139,-48.66275 -3.62648,-71.0527 2.53854,-9.69128 4.61555,-22.84268 4.61555,-29.22531 0,-13.03833 2.42847,-15.3842 18.19722,-17.57827 l 11.02783,-1.53441 -6.21739,-7.88634 c -14.28985,-18.12571 -32.25312,-7.55287 -81.61157,48.03498 l -7.63916,8.60328 1.77359,-12.90492 c 3.08556,-22.45103 10.3672,-40.55767 21.09627,-52.45826 14.48162,-16.06291 28.88568,-21.96383 53.80052,-22.04051 19.17709,-0.059 21.55434,0.66481 37.78954,11.50625 17.51332,11.69496 19.65089,14.75059 34.4705,49.27505 3.19336,7.43946 9.76919,19.2864 14.61293,26.32655 4.84376,7.04015 8.80683,13.56993 8.80683,14.51058 0,4.2068 -29.85754,-18.93917 -34.69763,-26.89807 -11.35604,-18.67353 -36.5303,-26.22798 -47.30599,-14.1959 -5.27137,5.88599 -5.27932,6.21298 -0.22598,9.32022 43.15026,26.5326 59.02498,44.77933 61.51643,70.70823 1.70259,17.71929 -2.47594,26.6848 -15.26543,32.75381 -13.27658,6.30015 -43.2626,5.81062 -55.83445,-0.91152 z m 115.82787,-17.78347 c 10.24998,-35.43983 8.96304,-52.17392 -6.50431,-84.57591 -10.89935,-22.83265 -25.74001,-38.91346 -65.18375,-70.6308 l -33.06077,-26.58469 12.40633,-5.55352 c 7.86753,-3.52178 19.26189,-5.64334 31.14508,-5.79904 16.50576,-0.21625 20.76106,0.95053 35.71021,9.79165 24.4695,14.47156 50.9081,42.17445 62.24223,65.21865 8.51068,17.30363 9.48477,21.81585 9.43694,43.71375 -0.0399,18.19092 -1.41074,26.97825 -5.37571,34.45559 -7.49572,14.13582 -23.23126,32.98924 -33.83624,40.54066 l -9.00026,6.40872 2.02025,-6.98506 z M 279.16835,381.4981 c -7.71447,-7.06737 -11.12229,-13.21435 -13.51744,-24.38256 -4.53067,-21.12575 -4.35899,-21.9572 7.16834,-34.71658 12.5665,-13.90961 15.90414,-14.49722 12.37103,-2.17801 -3.94969,13.77179 -3.23879,39.50884 1.5289,55.35066 2.30806,7.66911 3.87419,14.2661 3.48028,14.66002 -0.39391,0.39389 -5.35791,-3.53618 -11.03111,-8.73353 z M 163.42236,349.43548 c -4.57818,-61.06439 13.71917,-96.10533 66.07662,-126.54217 24.22614,-14.08334 53.22935,-24.74552 80.26745,-29.50798 38.12058,-6.71452 36.93109,-2.39759 -3.39919,12.33626 -49.50355,18.08512 -58.80421,25.96405 -75.44817,63.91493 -12.05433,27.4858 -12.71334,32.19306 -7.18473,51.3203 1.36074,4.70771 -1.27209,7.25537 -14.69231,14.21695 -11.32662,5.87555 -20.31358,13.58524 -29.25009,25.0929 -7.09498,9.13631 -13.2177,16.61147 -13.60605,16.61147 -0.38834,0 -1.63193,-12.34921 -2.76353,-27.44266 z m 357.64161,-1.95188 c 12.35821,-39.19517 1.09643,-76.1119 -34.5573,-113.28074 -32.11978,-33.48469 -85.84812,-61.43515 -126.20292,-65.65307 -26.48901,-2.76865 -49.22071,2.25297 -146.12359,32.2799 l -12.42124,3.84892 7.80641,-13.55489 c 16.83274,-29.22805 33.66241,-52.55342 44.7914,-62.07943 14.91165,-12.76381 52.54813,-26.44593 89.37613,-32.4912 23.42515,-3.84521 32.23959,-4.08794 50.70661,-1.396344 26.5402,3.868273 54.01291,15.685054 76.13438,32.747544 41.68217,32.14982 101.0953,126.96376 103.90571,165.81701 2.08165,28.77866 -14.83188,56.25395 -41.48484,67.39027 -17.37937,7.26156 -18.21593,6.306 -11.93075,-13.62797 z M 737.27546,179.71965 c -0.94886,-5.91475 -0.52796,-14.62558 0.93532,-19.35738 2.25148,-7.28056 2.69842,-5.62715 2.90702,10.7541 0.27416,21.53859 -1.22772,24.90163 -3.84234,8.60328 z m -187.40329,-7.1694 c -11.96085,-21.17836 -31.71338,-42.09986 -50.28734,-53.26336 -8.72089,-5.24152 -34.84578,-15.77356 -58.05531,-23.404537 L 399.33035,82.00785 415.35473,80.005737 c 8.8134,-1.101162 30.67178,-1.537142 48.57421,-0.968841 30.87656,0.980155 33.64751,1.583204 53.90404,11.73132 12.62282,6.323783 32.21217,20.170944 47.90932,33.865694 l 26.55505,23.16765 -16.37293,19.90221 c -9.00511,10.94622 -16.63759,19.90222 -16.96108,19.90222 -0.32351,0 -4.41454,-6.77508 -9.09117,-15.05574 z"
         style="fill:#f2ebf1" />
      <path
         id="path4175"
         d="m 339.85488,665.65696 c -8.68765,-3.46747 -26.75454,-12.33111 -40.14864,-19.69701 -41.58222,-22.86749 -63.29884,-26.33337 -94.97442,-15.15757 -10.30978,3.63749 -11.5076,3.55209 -13.02192,-0.92852 -11.85178,-35.06752 -29.33632,-54.48305 -78.49157,-87.16017 l -33.085778,-21.99454 1.104096,-21.01779 c 1.941261,-36.95412 3.383759,-40.73185 16.437939,-43.04886 19.573143,-3.47412 55.428783,-2.57648 65.520883,1.64028 5.24576,2.19182 14.51104,9.93478 20.5895,17.20655 6.07846,7.27178 13.03683,13.24977 15.46304,13.28441 18.51175,0.26441 50.57327,27.32327 79.6985,67.26314 28.95085,39.70078 45.78658,58.15582 56.04037,61.43054 17.37017,5.54742 60.83892,9.62644 83.79732,7.86334 19.76887,-1.51814 53.65573,-8.62364 71.95324,-15.08737 9.49022,-3.35247 -19.43859,24.49878 -39.0169,37.56361 -36.77618,24.54114 -78.43197,31.18428 -111.86566,17.83996 z m 8.6165,-68.16602 c -8.6849,-2.50542 -11.01759,-5.23117 -17.20656,-20.10589 C 323.34137,558.34163 282.161,504.8756 262.06664,487.54246 246.63578,474.23199 228.56223,464.90402 208.29475,459.7902 l -15.43888,-3.89547 1.59083,-26.66461 c 1.10246,-18.47869 3.4115,-30.42558 7.52144,-38.91558 6.43956,-13.30234 26.09585,-33.85425 27.93622,-29.20908 3.70068,9.34063 22.30595,35.5989 39.32908,55.50652 17.3828,20.32823 22.87943,24.64186 46.90951,36.81346 l 27.21954,13.78713 30.6532,0 c 29.63523,0 31.36305,-0.35428 52.02822,-10.66827 11.75623,-5.86755 28.89979,-17.15935 38.09681,-25.0929 9.19699,-7.93354 17.79755,-14.42463 19.11236,-14.42463 10.02827,0 52.66231,-20.45888 71.17593,-34.1553 12.12151,-8.96755 23.81385,-17.38686 25.983,-18.70961 3.2933,-2.00827 3.70247,3.45496 2.48035,33.11629 -2.23639,54.27872 -12.43162,83.90574 -44.30807,128.75805 -29.05769,40.88614 -52.42763,58.31183 -90.39351,67.40142 -22.40821,5.36486 -86.18653,7.95726 -99.7194,4.05332 z m 193.96816,-9.11552 c -1.79181,-12.1024 -1.6662,-12.31886 17.88817,-30.82842 26.3412,-24.93373 44.00463,-47.48439 54.34244,-69.37833 12.65261,-26.79632 15.82367,-45.42366 14.1238,-82.96553 -1.45779,-32.19573 -2.35936,-36.5422 -23.7211,-114.3578 -6.46534,-23.55162 -7.33347,-31.54625 -6.40592,-58.99181 0.89644,-26.52425 2.2255,-34.07405 8.07751,-45.88416 8.37133,-16.89442 22.23291,-25.28579 36.91776,-22.34883 10.35832,2.07167 10.26606,0.23195 1.63089,32.52676 -6.93559,25.93847 -4.57846,42.81607 10.0747,72.13758 30.74158,61.51502 45.75402,104.65697 45.77143,131.53533 0.0201,29.45895 -18.49654,71.11695 -44.62364,100.39812 -16.25661,18.21914 -21.21674,30.43359 -21.24241,52.31009 l -0.016,13.62186 -16.1569,0 c -23.13038,0 -35.94172,4.7345 -55.53569,20.5235 -9.48027,7.63928 -17.70567,13.88962 -18.2787,13.88962 -0.57301,0 -1.85387,-5.48459 -2.84634,-12.18798 z M 69.183901,431.86602 C 62.913082,421.71963 47.418099,374.8574 44.498508,357.20877 36.89092,311.22172 50.130372,281.12152 109.1612,210.19662 c 21.49564,-25.82678 32.84127,-48.83509 32.84127,-66.60025 0,-5.64347 -4.01872,-16.0551 -10.08621,-26.13117 -5.54742,-9.2124 -9.74152,-16.97313 -9.32022,-17.24607 3.95136,-2.559893 82.96745,-22.097313 98.37428,-24.323893 23.06635,-3.333527 52.21087,-3.583169 68.72179,-0.588642 l 11.47104,2.080459 -13.75649,3.900182 c -30.74394,8.716395 -80.51182,53.671934 -96.15351,86.855874 -8.92685,18.93836 -17.70532,52.91206 -17.70532,68.52163 0,7.25413 -3.36567,12.74032 -15.83742,25.81564 -27.60998,28.9462 -36.6204,58.21808 -30.00088,97.46309 2.96462,17.57621 10.84698,44.561 18.42877,63.0898 1.62298,3.96634 -2.42459,4.81723 -30.52692,6.41761 -17.818891,1.01473 -35.155944,2.61835 -38.52679,3.56357 -3.370845,0.94518 -6.926156,0.42841 -7.900689,-1.14843 z M 326.49722,411.10863 c -7.75445,-3.83843 -13.60195,-9.4016 -16.6634,-15.85312 -7.20129,-15.17555 -8.68283,-45.34424 -3.24654,-66.10934 2.53717,-9.69128 4.61303,-23.59602 4.61303,-30.89943 0,-11.61528 0.92158,-13.62926 7.35609,-16.07566 4.04583,-1.53823 10.49829,-2.79678 14.3388,-2.79678 3.84047,0 6.954,-0.96787 6.91892,-2.15082 -0.10897,-3.67438 -9.73954,-14.14297 -14.54748,-15.81328 -11.74655,-4.08084 -39.8744,16.85539 -66.516,49.50946 l -10.5288,12.90492 -0.0561,-10.2336 c -0.1509,-27.51035 18.47474,-58.55867 41.36635,-68.95636 14.03541,-6.37507 43.53715,-7.13255 57.09898,-1.46606 18.21214,7.60952 30.72249,21.88178 43.7118,49.86807 6.82086,14.69595 15.033,30.41543 18.24919,34.93215 3.2162,4.51672 5.84763,9.01064 5.84763,9.98646 0,4.12292 -17.00069,-9.33631 -33.02458,-26.14514 -15.67269,-16.44038 -18.32279,-18.097 -28.9501,-18.097 -10.49371,0 -21.19037,6.16153 -21.19037,12.20616 0,0.94456 7.42033,6.24114 16.48962,11.77021 48.98051,29.8608 65.28912,77.95683 32.23064,95.05204 -12.20077,6.30927 -39.11223,5.48786 -53.49766,-1.63288 z m 114.52898,-14.9116 c 6.31292,-16.45116 8.63288,-39.32106 5.54734,-54.68503 -7.55205,-37.60438 -28.77665,-65.84022 -79.04332,-105.15409 -15.1252,-11.82951 -27.10936,-22.7838 -26.63145,-24.34285 1.20251,-3.92297 29.74503,-12.54987 42.22644,-12.76283 12.70954,-0.21686 31.82474,9.24482 51.98526,25.73177 32.31736,26.42863 50.70234,56.50419 53.14539,86.93926 1.75288,21.83725 -1.99212,35.3121 -15.33825,55.18829 -9.96976,14.84783 -35.28893,37.93931 -31.89141,29.08548 z M 278.6497,381.45597 c -8.83998,-7.2312 -17.37688,-34.74248 -14.42739,-46.49419 1.6793,-6.69088 17.29833,-23.13235 19.69676,-20.73393 0.80091,0.80091 0.1308,8.62585 -1.4891,17.38875 -2.91589,15.77348 -1.12392,31.27756 5.68496,49.18627 3.50692,9.22392 1.20645,9.38265 -9.46523,0.6531 z M 164.38884,344.61584 c -1.27531,-34.29207 2.06058,-52.39062 13.54618,-73.49344 11.68625,-21.4715 32.2265,-38.67162 65.71386,-55.0279 28.92228,-14.12654 70.00815,-25.63999 90.4935,-25.3589 9.23511,0.12673 8.54765,0.69705 -8.60328,7.13727 -57.17829,21.47061 -58.67172,22.22495 -73.12787,36.9373 -10.38303,10.56704 -17.01835,21.07113 -24.05158,38.07497 -9.60773,23.22808 -10.16361,29.13712 -4.54033,48.26411 1.43626,4.88525 -0.43108,6.90292 -10.61637,11.47104 -15.14983,6.79469 -28.84504,18.50198 -36.9113,31.55347 -3.34365,5.41014 -7.14368,9.83662 -8.4445,9.83662 -1.30082,0 -2.85707,-13.22755 -3.45831,-29.39454 z m 353.3212,17.39982 c 0.0172,-2.0779 2.03706,-10.23042 4.48885,-18.11676 2.45179,-7.88634 4.50261,-21.50287 4.55739,-30.25891 0.40257,-64.36175 -100.11783,-146.32233 -179.13319,-146.05852 -20.34165,0.0679 -47.26375,6.09469 -97.47117,21.81989 -23.32437,7.3053 -43.09447,12.59585 -43.93355,11.75676 -1.97815,-1.97814 18.95544,-36.47242 33.98721,-56.00398 6.43742,-8.36447 16.97915,-18.27978 23.42607,-22.03403 43.96078,-25.599753 114.15924,-35.397744 156.75038,-21.87852 50.11548,15.90758 100.16798,69.09616 139.09651,147.8116 19.82757,40.09241 19.73101,66.07964 -0.34336,92.39851 -10.26128,13.45323 -41.49408,28.95757 -41.42514,20.56396 z m 220.11858,-180.528 c -0.72537,-4.94236 -0.3587,-13.00793 0.81485,-17.9235 1.70568,-7.14454 2.1926,-5.34191 2.42727,8.98609 0.31703,19.35806 -1.12804,23.34161 -3.24212,8.93741 z M 547.74814,168.63027 C 525.1678,131.53804 501.57453,115.26193 441.69382,95.467293 l -40.15908,-13.275302 19.6751,-2.148548 c 10.82132,-1.181701 32.11443,-1.494777 47.31804,-0.695722 30.84132,1.620927 46.34426,6.96157 70.51904,24.293269 18.72143,13.42203 50.32245,41.64253 50.32448,44.94106 8.9e-4,1.40722 -6.03683,9.79541 -13.41715,18.64044 -7.3803,8.84502 -14.17445,17.00426 -15.09807,18.13164 -0.92365,1.12738 -6.82226,-6.39835 -13.10804,-16.72386 z"
         style="fill:#ece3ec" />
      <path
         id="path4173"
         d="m 352.78282,670.38277 c -3.15453,-0.66512 -25.52636,-11.16198 -49.71514,-23.32636 -43.75535,-22.00426 -44.09172,-22.11588 -65.95848,-21.88654 -12.53372,0.13134 -26.27035,2.0614 -31.9652,4.49103 l -9.98634,4.26051 -10.59907,-21.69758 C 171.6387,585.77522 160.14621,574.3018 116.78258,544.56032 l -33.569182,-23.02386 0.194319,-27.97078 c 0.143675,-20.68171 1.301527,-29.078 4.443086,-32.21954 5.809029,-5.80905 54.276577,-8.86955 70.476867,-4.45034 8.49044,2.31609 15.6533,7.36642 24.37596,17.18675 9.14833,10.29956 16.26628,15.18011 27.44124,18.81563 19.54014,6.35693 40.44947,25.47697 67.04582,61.30854 29.02405,39.10222 44.85721,57.36263 53.65154,61.87642 12.2605,6.29281 58.2483,11.28378 87.2538,9.46943 14.97707,-0.93684 37.02559,-4.75228 50.81842,-8.79401 13.39981,-3.92657 24.76555,-6.73697 25.25717,-6.24535 0.49165,0.49162 -6.93795,7.81011 -16.51016,16.26329 -21.73885,19.19748 -48.74357,35.76237 -67.27056,41.26431 -13.15037,3.90523 -44.20583,5.16773 -57.60807,2.34196 z m -2.49696,-73.14445 c -9.87776,-2.79767 -11.99982,-5.1279 -19.26853,-21.15873 -13.16847,-29.04238 -61.62989,-86.63488 -86.74785,-103.09281 -4.20591,-2.75581 -16.99953,-7.89056 -28.43027,-11.41059 l -20.78318,-6.40001 0.58138,-24.6804 c 0.67983,-28.86019 7.45256,-47.7714 22.24225,-62.10613 l 9.53747,-9.24408 12.74018,19.62038 c 35.91512,55.31069 71.13095,81.91117 119.05016,89.92524 31.94171,5.34194 73.70033,-9.20864 103.61437,-36.10392 10.04722,-9.0333 20.50032,-14.61528 40.34895,-21.5464 20.40738,-7.12621 33.01124,-13.9538 52.91077,-28.66217 l 26.12205,-19.30762 0.83853,24.79184 c 0.91135,26.94426 -4.53917,59.82626 -14.19435,85.63199 -13.52252,36.14218 -59.39675,93.63552 -85.22661,106.81293 -29.51696,15.05841 -105.76281,24.73988 -133.33532,16.93048 z m 192.58599,-8.8629 c -1.20431,-12.03713 -0.91131,-12.48964 23.67445,-36.56394 27.12918,-26.56474 45.12982,-51.95179 54.39521,-76.71578 11.55799,-30.89148 11.78842,-84.22691 0.54201,-125.46128 -21.12814,-77.46531 -23.50723,-88.59804 -23.50723,-110.00005 0,-37.42894 11.35776,-68.93736 26.60128,-73.79663 6.52975,-2.08153 24.93417,-2.21397 26.95416,-0.19398 0.61821,0.6182 -1.65432,11.25115 -5.05009,23.62878 -9.4696,34.517 -7.25879,47.32619 16.93713,98.13226 35.65896,74.87583 42.63694,103.42054 33.75614,138.08567 -6.27162,24.48055 -22.66075,54.38262 -41.32198,75.39232 -18.19181,20.4812 -20.59576,26.06972 -20.59576,47.87915 l 0,16.65141 -22.22514,1.31814 c -24.8933,1.47635 -33.47685,5.06624 -52.77668,22.07269 -7.33974,6.46757 -13.97926,11.75922 -14.75451,11.75922 -0.77527,0 -1.9583,-5.48459 -2.62899,-12.18798 z M 63.843492,417.87726 C 50.236924,387.17953 44.063127,362.4379 43.95242,338.16338 c -0.171472,-37.59699 12.818399,-63.89317 59.81169,-121.08044 39.70286,-48.31536 45.53892,-68.03042 29.20827,-98.66985 -4.96655,-9.31821 -8.5154,-17.42912 -7.88634,-18.02427 0.62907,-0.595138 18.85221,-5.76581 40.49588,-11.490375 49.0144,-12.963891 79.86264,-16.957617 111.02458,-14.373653 l 24.19528,2.006285 -17.70089,6.409334 c -31.26491,11.320748 -72.67392,47.699179 -88.71965,77.941519 -10.39919,19.59997 -16.82023,40.71977 -20.58515,67.70773 -2.51933,18.05921 -3.84311,20.69192 -18.20368,36.20306 -8.51773,9.20016 -18.30978,22.73323 -21.7601,30.07348 -12.66162,26.93644 -10.69485,67.11587 5.43243,110.98018 l 8.01464,21.79888 -33.48982,1.68386 c -18.419393,0.92611 -35.534645,2.46851 -38.033887,3.42757 -3.425358,1.31441 -6.358047,-2.34878 -11.912181,-14.87943 z M 333.1173,414.07811 c -17.70302,-5.30509 -26.53429,-19.22136 -29.28682,-46.14999 -1.29442,-12.66352 -0.46871,-24.0306 2.68287,-36.93414 2.50405,-10.25224 4.90562,-25.0929 5.33682,-32.97924 l 0.78402,-14.3388 13.62185,-2.63145 c 7.49203,-1.4473 13.62186,-3.51722 13.62186,-4.59982 0,-1.08261 -3.28143,-5.50909 -7.29205,-9.83663 -5.80896,-6.26796 -8.8711,-7.48281 -15.05574,-5.9731 -15.27859,3.7296 -37.07652,22.46499 -61.84089,53.15248 l -8.09984,10.03716 1.44614,-16.09585 c 2.77387,-30.87378 23.84849,-59.12132 49.25987,-66.0259 19.24467,-5.22902 44.75839,-1.64937 59.18933,8.30443 17.59241,12.13442 21.03906,16.62947 31.35645,40.89449 5.01666,11.79848 12.82861,26.84628 17.35985,33.43954 4.53126,6.59324 8.23864,12.7414 8.23864,13.66253 0,4.07864 -22.62155,-13.93124 -33.65081,-26.79067 -15.10845,-17.6155 -28.01529,-22.73477 -40.73535,-16.15696 -4.82839,2.49684 -8.77888,6.32665 -8.77888,8.51065 0,2.184 8.12749,9.10387 18.06107,15.37753 48.75702,30.79283 63.77081,79.54477 28.9743,94.08368 -10.50074,4.38751 -32.3609,4.89541 -45.19269,1.05006 z m 107.16323,-14.35586 c 0.0172,-0.73475 1.95283,-7.67085 4.30164,-15.41355 5.76219,-18.99449 5.37303,-34.80256 -1.39629,-56.71901 -9.7901,-31.69669 -28.26171,-53.5775 -81.72866,-96.81285 l -22.86066,-18.48598 12.82864,-5.65752 c 8.14573,-3.59232 19.2589,-5.67695 30.44388,-5.71074 15.91173,-0.0481 19.41814,1.12145 36.25949,12.09403 24.61975,16.04039 47.92738,40.87705 59.74341,63.6627 8.51854,16.42681 9.57729,21.00295 9.58076,41.40973 0.006,28.21927 -7.22673,43.81765 -31.19822,67.29439 -8.80276,8.62109 -15.99106,15.07355 -15.97399,14.3388 z M 276.99886,378.5304 c -8.19455,-8.45462 -9.63104,-12.19435 -10.93793,-28.4754 -1.45308,-18.10236 -1.19324,-19.05377 7.60734,-27.85435 5.01149,-5.01146 9.68011,-8.54348 10.37471,-7.84888 0.6946,0.6946 -0.22512,8.35714 -2.04383,17.02787 -2.76535,13.18392 -2.50377,18.96157 1.59774,35.28976 2.69746,10.73864 4.43893,19.99035 3.86994,20.55934 -0.56899,0.56896 -5.27958,-3.34527 -10.46797,-8.69834 z m -110.35753,-6.64693 c -3.6636,-3.66359 -1.62194,-65.91032 2.6316,-80.23358 11.90234,-40.07949 53.46115,-73.31699 113.38565,-90.68243 23.63766,-6.84992 60.26597,-12.9459 57.05744,-9.49596 -0.87768,0.94371 -14.12581,6.25153 -29.44031,11.79515 -52.24206,18.91085 -64.50128,29.08822 -81.05711,67.29209 -10.26029,23.67641 -11.7754,37.2504 -5.78541,51.83196 1.27164,3.09555 -2.83975,6.71383 -14.66366,12.90492 -10.31778,5.40249 -20.8954,14.12466 -28.43109,23.44394 -6.60019,8.16239 -12.76389,14.07714 -13.69711,13.14391 z m 351.03768,-7.6256 c 0,-0.44057 2.64563,-11.00881 5.87917,-23.48494 7.14663,-27.57432 5.89629,-39.2432 -7.07485,-66.02515 -16.99564,-35.09153 -50.11812,-65.24526 -98.49232,-89.66447 -34.42648,-17.37844 -68.49559,-21.66993 -106.7907,-13.45182 -10.25225,2.20013 -37.83019,9.98077 -61.28432,17.29031 -23.45413,7.30954 -43.12637,12.80758 -43.71609,12.21786 -2.96132,-2.96132 30.75367,-52.97735 44.63892,-66.22163 24.66354,-23.52504 72.70928,-39.105525 120.40762,-39.046317 49.67367,0.06166 78.02905,12.061517 115.11916,48.717877 37.54279,37.10375 78.97716,104.74194 86.4405,141.10709 2.87697,14.01793 2.63037,18.66639 -1.7228,32.47629 -6.25863,19.85462 -21.58423,36.04381 -40.09045,42.34953 -7.32263,2.49504 -13.31384,4.17597 -13.31384,3.73537 z m 221.7354,-190.99068 c 0,-10.25224 0.52049,-14.44634 1.15665,-9.32022 0.63613,5.12612 0.63613,13.51432 0,18.64044 -0.63616,5.12612 -1.15665,0.93202 -1.15665,-9.32022 z m -190.35949,-3.57122 c -12.26146,-21.14446 -36.83351,-44.87755 -57.34043,-55.38266 -8.58992,-4.40035 -32.22479,-13.3839 -52.52199,-19.963457 l -36.90403,-11.962825 17.96732,-1.877956 c 68.35885,-7.144914 99.83447,2.935118 147.06828,47.098458 l 23.24365,21.73269 -15.83474,18.66512 -15.83476,18.66511 -9.8433,-16.97448 z"
         style="fill:#e8dde8" />
      <path
         id="path4171"
         d="m 351.34894,669.31725 c -5.52043,-1.29419 -28.10404,-11.60304 -50.18579,-22.90858 -47.21897,-24.17542 -63.22883,-27.36273 -90.6641,-18.04979 l -16.10233,5.46597 -8.03578,-18.4456 c -10.84035,-24.88332 -30.30686,-44.72314 -70.1683,-71.51396 l -32.979242,-22.16528 0.367664,-28.2259 c 0.256377,-19.68321 1.558297,-29.41536 4.301639,-32.15599 2.461837,-2.45939 14.369309,-4.66286 31.820169,-5.88832 35.08151,-2.46352 48.55554,1.86927 63.84754,20.53113 5.74334,7.00898 13.90788,13.57563 18.14342,14.59254 25.89697,6.21759 43.56136,21.76368 80.68232,71.00699 40.60775,53.86875 42.73371,55.63124 73.59617,61.01363 32.76931,5.71493 80.00158,3.7175 111.15141,-4.70052 12.41497,-3.35508 23.10833,-5.5644 23.76309,-4.90963 1.82318,1.82315 -30.19409,28.74023 -46.33568,38.95459 -27.34469,17.30369 -64.23343,24.18998 -93.2022,17.39872 z m -0.99411,-72.26843 c -9.89253,-2.62019 -11.86951,-4.79011 -19.15176,-21.02083 -8.78056,-19.57022 -44.22156,-66.06449 -65.07838,-85.3749 -18.20489,-16.85511 -26.89274,-21.87217 -50.43308,-29.1241 l -20.63558,-6.35708 0.8136,-25.52504 c 0.91394,-28.67316 8.09405,-47.98631 23.2318,-62.48921 l 8.4669,-8.1118 7.70598,12.50085 c 15.23653,24.71705 21.59197,32.98787 40.72542,52.99899 22.92519,23.97676 50.98481,39.04027 82.92506,44.51741 34.265,5.87581 67.17515,-5.49274 103.96458,-35.91368 8.50876,-7.03584 20.76843,-14.7726 27.24372,-17.19276 6.47529,-2.42019 19.08735,-7.09392 28.02682,-10.38611 8.93947,-3.29219 27.00635,-14.28721 40.14864,-24.43337 l 23.89506,-18.44755 0.82637,25.87149 c 1.05373,32.99039 -9.3546,78.91871 -23.64706,104.34605 -29.87549,53.15066 -63.1735,85.59039 -98.68836,96.14454 -34.91681,10.37645 -87.08211,14.15725 -110.33973,7.9971 z m 192.51998,-9.98789 c -1.18978,-10.19136 -0.0863,-11.77548 26.46555,-37.99782 44.1549,-43.60676 60.72017,-79.1147 60.92903,-130.60246 0.13966,-34.40061 -3.10298,-52.60062 -18.56608,-104.21003 -10.92823,-36.47386 -11.75179,-41.65215 -11.93235,-75.02495 -0.17178,-31.73369 0.58342,-37.58851 6.58042,-51.02403 3.72591,-8.34736 9.46008,-17.05818 12.74263,-19.35738 5.69509,-3.98899 33.36972,-6.04135 33.36972,-2.47471 0,0.9381 -2.72704,10.68385 -6.06012,21.65723 -10.05595,33.10708 -7.61921,47.47526 16.73369,98.66977 33.12093,69.6266 41.48728,101.05711 35.21371,132.29042 -4.43565,22.08316 -19.73389,52.88534 -36.56202,73.61563 -7.4948,9.23269 -16.12389,19.86136 -19.17576,23.61927 -3.86287,4.75652 -6.04125,13.16195 -7.1694,27.66356 l -1.62054,20.83097 -21.64686,1.53942 c -23.19782,1.64973 -40.36438,9.25996 -54.13172,23.99752 -9.54043,10.21276 -13.70729,9.33588 -15.1699,-3.19241 z M 62.024595,413.04887 C 48.040114,379.45665 43.828464,359.25916 44.945442,331.14365 c 0.865571,-21.78732 2.294197,-27.48914 11.60569,-46.31973 6.117571,-12.37153 23.776771,-37.83112 41.660632,-60.06289 45.546596,-56.61984 52.624696,-78.95926 34.242866,-108.07511 -4.2123,-6.67204 -7.65707,-13.1245 -7.65505,-14.3388 0.006,-3.716404 80.19895,-23.791807 106.10345,-26.561859 13.40678,-1.433627 34.05465,-1.686286 45.88416,-0.561459 l 21.5082,2.045138 -13.27193,3.823569 c -16.9839,4.892969 -59.55611,36.716411 -74.63166,55.788421 -20.43135,25.84759 -31.42836,53.23021 -36.9941,92.11548 -2.67274,18.67319 -3.80862,20.89165 -18.67948,36.48219 -23.6962,24.84299 -28.52497,37.48088 -28.31979,74.11866 0.14987,26.76122 1.28849,33.33768 10.23362,59.10803 l 10.06499,28.99655 -33.1757,1.58366 c -18.246638,0.871 -35.280664,2.41979 -37.853397,3.44174 -3.698633,1.46918 -6.554245,-2.64958 -13.643348,-19.67837 z m 272.647375,1.14048 c -25.52836,-6.04228 -37.41534,-40.63383 -27.96556,-81.3806 2.47164,-10.65748 4.51365,-24.78174 4.5378,-31.38725 0.0576,-15.751 1.93124,-18.08817 16.44571,-20.51418 14.04233,-2.3471 14.91135,-4.80588 5.14892,-14.56829 -8.14048,-8.1405 -9.97309,-8.39945 -22.44759,-3.17198 -12.64054,5.29705 -25.35762,16.46959 -45.85717,40.28763 l -17.3711,20.18312 1.8364,-15.50552 c 2.38346,-20.12455 14.03844,-43.66898 26.84099,-54.22192 21.57034,-17.78009 58.97849,-19.53743 81.7364,-3.83976 17.50811,12.0765 21.19966,16.88 30.72567,39.98083 4.63232,11.2335 11.763,25.34067 15.84595,31.34926 4.08291,6.00859 7.42351,11.8721 7.42351,13.03004 0,4.56287 -20.94807,-10.58565 -26.63481,-19.26085 -13.98595,-21.33576 -40.23613,-29.4727 -51.24021,-15.88323 l -5.44204,6.72062 20.86726,13.37274 c 31.14183,19.95714 47.9065,43.1361 48.04802,66.4316 0.14769,24.33042 -27.17761,36.73769 -62.49815,28.37774 z m 110.33494,-30.38698 c 9.09708,-34.60147 -0.87389,-71.51172 -27.98354,-103.58884 -6.94147,-8.2134 -27.28223,-26.79402 -45.20169,-41.29027 -35.87771,-29.02393 -35.68055,-28.10167 -7.57341,-35.42265 22.05712,-5.74514 37.50253,-2.10692 60.38966,14.22499 23.98038,17.11205 43.3558,39.21257 54.04706,61.6487 7.48529,15.70824 8.88249,22.02374 8.88212,40.14864 -4.1e-4,18.26634 -1.22781,23.72248 -8.14341,36.19881 -4.47861,8.07983 -15.05789,21.51967 -23.50952,29.86632 l -15.36661,15.17572 4.45934,-16.96142 z m -167.78832,-5.03114 c -7.42536,-7.90395 -11.90244,-21.90599 -11.90244,-37.22481 0,-8.42746 2.03824,-13.03188 8.73196,-19.7256 4.80258,-4.80258 9.20231,-8.25215 9.77719,-7.66572 0.57487,0.5864 -0.30283,7.85923 -1.95046,16.1618 -2.8456,14.33934 -0.73727,35.30628 5.04241,50.14594 2.76535,7.1002 -2.26313,6.22315 -9.69866,-1.69161 z M 166.18955,367.1094 c -1.02538,-4.08541 -1.34845,-21.94829 -0.71794,-39.69525 1.26093,-35.49113 5.9078,-50.13986 22.585,-71.19653 11.6941,-14.76502 47.31235,-37.92161 74.39177,-48.36454 21.50821,-8.29444 68.90453,-18.78711 75.27343,-16.66415 1.83046,0.61015 -9.17821,5.42025 -24.46372,10.68912 -55.29377,19.05959 -68.42302,30.35265 -86.37119,74.29174 -9.47969,23.20734 -9.68298,24.49281 -5.87461,37.14706 2.16969,7.20932 3.66959,13.20635 3.33311,13.32671 -18.48639,6.61337 -36.13412,20.06741 -48.23591,36.77343 l -8.05561,11.12048 -1.86433,-7.42807 z m 352.67302,-8.16491 c 6.87786,-23.98732 10.66141,-46.56632 9.15168,-54.61397 -0.9718,-5.18003 -6.26675,-18.80784 -11.76656,-30.28404 -16.59797,-34.63416 -48.26082,-63.81434 -94.73539,-87.30728 -53.65177,-27.12101 -83.85774,-26.10378 -186.03917,6.26514 -15.62503,4.94968 -28.78363,8.62491 -29.24136,8.16719 -2.78177,-2.78177 28.74292,-49.4011 43.20532,-63.8929 14.27674,-14.30574 21.08487,-18.69665 38.82114,-25.03771 67.73307,-24.215877 119.78538,-22.173564 167.49269,6.5717 33.46234,20.16221 75.17284,73.64128 104.09575,133.46625 11.86822,24.54858 13.73511,30.81282 13.61836,45.69546 -0.23974,30.56625 -16.1655,53.19942 -44.45733,63.18134 -11.91018,4.20216 -11.97967,4.18702 -10.14513,-2.21118 z M 739.38515,171.83331 c 0.0172,-9.46361 0.55147,-12.98935 1.18972,-7.83498 0.63825,5.15437 0.62509,12.89732 -0.0293,17.20656 -0.65436,4.30924 -1.17655,0.092 -1.16047,-9.37158 z m -188.97086,-0.675 c -11.07351,-18.8955 -31.288,-39.92172 -49.94184,-51.94728 -8.86751,-5.71662 -33.26541,-15.99455 -55.72943,-23.476746 l -39.95676,-13.308587 18.15229,-1.89729 c 42.28684,-4.419849 70.90293,-0.927385 96.17434,11.737637 16.21678,8.127196 43.29262,28.993116 59.92999,46.184846 l 11.17807,11.55052 -15.04653,17.36841 c -8.27559,9.55263 -15.44143,17.36841 -15.92413,17.36841 -0.4827,0 -4.45891,-6.11096 -8.836,-13.57992 z"
         style="fill:#e6d9e5" />
      <path
         id="path4169"
         d="m 344.4305,666.42348 c -9.32561,-3.31131 -27.00208,-11.81534 -39.28108,-18.89787 -41.03095,-23.66662 -67.23166,-28.9936 -95.39916,-19.39595 -7.46416,2.5433 -13.96935,4.15641 -14.45597,3.58469 -0.48662,-0.57171 -4.90632,-9.55543 -9.82155,-19.96379 -11.48087,-24.31166 -28.22425,-40.86042 -69.2801,-68.47479 l -32.979242,-22.18201 0.372261,-25.76814 c 0.528055,-36.55247 1.060202,-37.18484 33.327181,-39.60399 36.27335,-2.71953 48.43643,0.81524 64.77326,18.824 8.86505,9.77232 16.86517,15.35138 26.6949,18.61629 21.8577,7.25997 39.49556,23.48492 70.99086,65.30403 15.99012,21.23146 34.61757,43.71355 41.39437,49.96019 10.94404,10.08786 14.79785,11.72581 34.47412,14.6523 43.94214,6.53557 94.53487,2.69311 129.45943,-9.83229 9.12268,-3.27179 -14.84539,20.67099 -33.46802,33.43266 -35.06075,24.02635 -74.30839,31.28219 -106.80126,19.74467 z m 7.45629,-69.56976 c -11.338,-3.18324 -13.00839,-4.91471 -20.07432,-20.80898 -9.03206,-20.31693 -40.75433,-62.24484 -63.45717,-83.87254 -18.40129,-17.52984 -31.95225,-25.28633 -56.09271,-32.10706 l -17.20656,-4.86163 0.89582,-22.67305 c 0.4927,-12.4702 2.75551,-28.4803 5.02845,-35.57801 3.84549,-12.00828 20.92838,-34.41311 26.23877,-34.41311 1.28918,0 6.72635,7.42033 12.0826,16.48962 5.35625,9.06929 19.32524,27.13181 31.0422,40.13891 17.81077,19.77194 25.13976,25.54371 44.70184,35.20382 12.86908,6.35498 31.46389,13.03962 41.32181,14.85471 33.64316,6.19456 70.29591,-5.87363 105.95427,-34.88622 11.52091,-9.37373 25.13643,-17.0999 38.71475,-21.96887 28.50588,-10.2217 34.97084,-13.71271 58.42292,-31.54754 11.14974,-8.47919 21.15105,-15.41667 22.22514,-15.41667 4.05877,0 1.60744,48.30486 -3.63827,71.69399 -8.09591,36.09735 -12.74986,47.0368 -32.86547,77.25283 -33.38861,50.1536 -58.99441,69.83922 -102.25307,78.61178 -30.43821,6.17262 -75.97666,8.1174 -91.041,3.88802 z m 193.52122,-1.25699 c -0.7432,-1.21149 -1.76025,-6.1334 -2.26011,-10.93758 -0.7958,-7.64843 1.88845,-11.39198 21.58202,-30.09895 39.93106,-37.93059 57.96531,-69.21708 64.91599,-112.61856 4.96289,-30.98924 0.14482,-67.53936 -16.42888,-124.63333 -11.83568,-40.77182 -13.11911,-48.13292 -13.36419,-76.64876 -0.31356,-36.48264 3.36305,-51.89074 15.74776,-65.99613 7.42884,-8.46097 10.64601,-9.99951 20.90958,-9.99951 6.67141,0 12.80784,0.67797 13.63645,1.50659 0.82864,0.82862 -0.89201,10.15676 -3.82367,20.72919 -2.93165,10.57244 -5.33027,27.08715 -5.33027,36.69937 0,14.93357 1.9179,21.41096 13.17965,44.51235 27.77167,56.96824 41.07472,92.16684 45.44301,120.23777 4.08154,26.22804 -15.21877,78.96752 -37.98282,103.7909 -19.97576,21.78282 -26.37155,33.37697 -26.41451,47.88362 -0.074,24.94621 -1.06328,26.12658 -21.89887,26.12658 -13.90577,0 -21.83145,1.73821 -32.44179,7.11486 -7.72231,3.9132 -14.81614,8.36981 -15.76408,9.90363 -3.14602,5.09039 -18.33135,14.66765 -19.70527,12.42796 z M 64.712415,418.12079 C 45.34349,374.37407 39.672177,333.17038 48.956836,303.65204 c 6.462236,-20.54514 24.628829,-48.58399 55.677684,-85.93457 39.07635,-47.00736 45.90984,-70.40497 29.12866,-99.73541 -5.02434,-8.78164 -8.07646,-16.62092 -6.78248,-17.42064 1.29397,-0.799723 22.70131,-6.706445 47.57186,-13.126051 42.5591,-10.98539 47.52882,-11.659686 84.48101,-11.462476 l 39.26182,0.209536 -15.57893,5.529181 c -16.92866,6.008226 -51.13757,30.71024 -67.29154,48.59075 -22.58731,25.00146 -33.8549,49.78603 -40.72054,89.57034 -4.28048,24.80403 -5.25152,26.97378 -18.84575,42.10962 -20.67825,23.02321 -28.8142,40.4225 -30.43148,65.07976 -1.65966,25.30336 2.56526,50.26492 13.40694,79.21059 l 8.32448,22.22514 -20.79781,0 c -11.4388,0 -28.594623,0.81493 -38.124057,1.81096 l -17.326242,1.81094 -6.198046,-13.99892 z m 273.086505,-3.72111 c -14.11615,-3.59397 -23.77883,-11.12611 -28.37017,-22.11473 -4.92581,-11.78911 -5.74441,-53.36692 -1.28178,-65.10449 1.67933,-4.41698 3.05334,-13.83895 3.05334,-20.93766 0,-17.82249 3.46482,-22.90459 17.10237,-25.08533 13.22074,-2.11408 13.88707,-3.80618 5.63156,-14.30134 -11.68282,-14.85232 -29.45958,-6.69009 -62.86987,28.86684 l -23.71043,25.23385 1.97333,-14.3388 c 7.9756,-57.95302 63.25171,-85.36618 109.80566,-54.45608 14.23198,9.44948 16.85345,12.9419 28.41887,37.86027 7.00737,15.09781 15.27854,31.01465 18.38039,35.3708 3.10183,4.35613 5.63971,8.75089 5.63971,9.76613 0,4.02545 -25.54494,-16.0193 -27.24627,-21.37981 -2.62248,-8.26267 -19.3133,-20.07105 -31.06553,-21.97819 -8.4259,-1.36732 -11.41207,-0.31887 -18.07838,6.34744 -7.44998,7.44998 -7.63708,8.19376 -2.79116,11.09513 38.86262,23.26794 55.85739,41.06334 62.33101,65.26743 6.47429,24.20665 -5.55932,38.66489 -34.20658,41.0989 -7.40722,0.62933 -17.62947,0.0846 -22.71607,-1.21036 z m 105.52505,-18.88111 c -10e-4,-1.57726 1.77259,-10.29511 3.94205,-19.373 3.33414,-13.95145 3.34137,-19.38758 0.0467,-35.13393 -8.16741,-39.03603 -24.16764,-60.95099 -73.83274,-101.12599 l -34.33116,-27.77109 9.68471,-4.16509 c 5.32658,-2.2908 18.71816,-4.69457 29.75903,-5.34172 19.98092,-1.17117 20.17478,-1.11093 41.66293,12.94557 25.86929,16.92243 45.65454,38.60578 58.03156,63.59887 7.70106,15.55086 9.10789,21.57818 9.03637,38.71476 -0.10811,25.94984 -6.70061,40.93601 -27.90901,63.44483 -8.84847,9.39099 -16.08919,15.78406 -16.09054,14.20679 z M 278.23085,379.02896 c -7.53251,-6.49823 -12.71934,-21.90263 -12.84629,-38.15219 -0.0501,-6.412 2.73541,-11.40471 10.39971,-18.64044 7.58072,-7.15684 9.88859,-8.30079 8.36708,-4.14727 -4.62252,12.6188 -4.96019,34.95163 -0.76963,50.90274 2.38261,9.06929 3.88125,16.48962 3.3303,16.48962 -0.55095,0 -4.36747,-2.90361 -8.48117,-6.45246 z m -111.5456,-12.42254 c -0.95738,-2.49489 -1.7407,-16.55437 -1.7407,-31.24327 0,-44.30714 12.50424,-72.98741 42.10712,-96.57877 20.6122,-16.42643 65.96615,-36.12226 98.04002,-42.57578 16.3561,-3.29097 31.0394,-5.54991 32.62954,-5.01986 1.59015,0.53005 -9.85637,5.3029 -25.43674,10.60634 -50.5852,17.21884 -62.54335,25.67321 -76.81787,54.30994 -17.32859,34.76364 -19.54052,43.07317 -15.30975,57.51395 l 3.73144,12.73649 -16.34436,8.16738 c -11.02544,5.50946 -19.87494,12.79698 -27.1934,22.39357 -5.96697,7.82442 -11.09105,14.22621 -11.38682,14.22621 -0.29578,0 -1.32109,-2.04128 -2.27848,-4.5362 z m 357.42406,-24.85834 c 6.71227,-25.77609 5.20481,-42.71135 -5.91748,-66.47918 -17.03564,-36.40433 -62.89829,-75.92591 -112.31943,-96.78988 -17.50512,-7.39009 -26.54163,-9.33407 -48.2001,-10.36902 -32.3233,-1.54457 -47.0095,1.17899 -105.4524,19.55615 -24.89369,7.82774 -45.58591,13.90759 -45.98271,13.5108 -1.69165,-1.69165 27.7494,-47.0409 39.0758,-60.19004 14.94939,-17.35519 36.04161,-27.93462 75.80162,-38.02058 67.8105,-17.201543 118.60699,-4.396043 165.10992,41.62326 35.53938,35.16976 79.24137,107.74285 86.34527,143.38799 2.77247,13.91133 2.41523,17.68376 -3.02703,31.96669 -6.88051,18.0574 -16.43327,29.02543 -32.35456,37.14784 -18.22346,9.29694 -19.19787,8.15376 -13.0789,-15.34403 z M 739.35587,173.26719 c 0,-8.67497 0.53762,-12.22383 1.19468,-7.88634 0.65709,4.33749 0.65709,11.43519 0,15.77268 -0.65706,4.33749 -1.19468,0.78863 -1.19468,-7.88634 z M 549.7716,169.49357 c -11.50935,-20.39346 -35.14079,-44.06075 -54.34741,-54.42989 -8.16812,-4.40975 -31.85608,-13.61307 -52.63988,-20.451825 l -37.78879,-12.434108 28.90559,-2.068885 c 60.41739,-4.324309 88.17828,6.222491 138.97646,52.799358 l 16.48377,15.11399 -5.61651,7.60391 c -3.08906,4.18215 -9.94892,12.64179 -15.24409,18.7992 l -9.62759,11.1953 -9.10155,-16.12705 z"
         style="fill:#e0d0e0" />
    </g>
    <g
       transform="translate(788.57143,408.57143)"
       id="g4147" />
  </g>
</svg>
