<?xml version="1.0" encoding="UTF-8" standalone="no"?>
<!DOCTYPE svg PUBLIC "-//W3C//DTD SVG 1.1//EN" "http://www.w3.org/Graphics/SVG/1.1/DTD/svg11.dtd">
<svg
  id="itunes_logo"
  width="100%"
  height="100%"
  viewBox="0 0 81 24"
  version="1.1"
  xmlns="http://www.w3.org/2000/svg"
  xmlns:xlink="http://www.w3.org/1999/xlink"
  xml:space="preserve"
  xmlns:serif="http://www.serif.com/"
  style="fill-rule:evenodd;clip-rule:evenodd;stroke-linejoin:round;stroke-miterlimit:1.41421;">
  <defs>
    <style type="text/css"><![CDATA[
    div.brand-fill:hover { fill: #000000; }
    ]]></style>
  </defs>
  <path
  d="M20.096,17.152c-0.55,1.219 -0.812,1.763 -1.52,2.838c-0.985,1.503 -2.376,3.37 -4.101,3.387c-1.53,0.014 -1.923,-0.996 -4.002,-0.986c-2.077,0.012 -2.513,1.004 -4.043,0.99c-1.723,-0.017 -3.041,-1.706 -4.028,-3.208c-2.759,-4.199 -3.048,-9.125 -1.346,-11.747c1.209,-1.86 3.117,-2.951 4.912,-2.951c1.826,0 2.974,1 4.484,1c1.465,0 2.357,-1.001 4.469,-1.001c1.596,0 3.288,0.87 4.492,2.372c-3.948,2.163 -3.306,7.8 0.683,9.306"
  class="brand-fill" fill="#c1c1c1;" style="fill:#c1c1c1;"/><path d="M13.32,3.796c0.767,-0.985 1.349,-2.374 1.137,-3.796c-1.253,0.087 -2.719,0.884 -3.574,1.922c-0.777,0.946 -1.418,2.342 -1.17,3.703c1.369,0.042 2.785,-0.774 3.607,-1.829" style="fill:#c1c1c1;"/><path
  d="M23.915,13.237l3.083,0l0,9.919l-3.083,0l0,-9.919Zm3.184,-2.759c0,0.851 -0.649,1.541 -1.662,1.541c-0.974,0 -1.623,-0.69 -1.603,-1.541c-0.02,-0.894 0.629,-1.562 1.622,-1.562c0.994,0 1.623,0.668 1.643,1.562"
  class="brand-fill" fill="#c1c1c1;" style="fill:#c1c1c1;fill-rule:nonzero;"/><path d="M32.211,12.081l-3.671,0l0,-2.598l10.508,0l0,2.598l-3.733,0l0,11.075l-3.104,0l0,-11.075Z" style="fill:#c1c1c1;fill-rule:nonzero;"/><path
  d="M48.844,19.971c0,1.299 0.041,2.353 0.082,3.186l-2.677,0l-0.144,-1.401l-0.06,0c-0.386,0.61 -1.319,1.625 -3.104,1.625c-2.009,0 -3.489,-1.259 -3.489,-4.322l0,-5.821l3.104,0l0,5.336c0,1.438 0.467,2.31 1.541,2.31c0.852,0 1.339,-0.589 1.542,-1.076c0.082,-0.181 0.102,-0.425 0.102,-0.668l0,-5.902l3.103,0l0,6.733Z"
  class="brand-fill" fill="#c1c1c1;" style="fill:#c1c1c1;fill-rule:nonzero;"/><path
  d="M51.318,16.402c0,-1.239 -0.04,-2.292 -0.081,-3.164l2.677,0l0.143,1.36l0.061,0c0.405,-0.631 1.419,-1.583 3.063,-1.583c2.027,0 3.549,1.336 3.549,4.259l0,5.883l-3.083,0l0,-5.497c0,-1.279 -0.445,-2.151 -1.562,-2.151c-0.852,0 -1.36,0.588 -1.562,1.156c-0.081,0.204 -0.123,0.487 -0.123,0.772l0,5.72l-3.082,0l0,-6.755Z"
  class="brand-fill" fill="#c1c1c1;" style="fill:#c1c1c1;fill-rule:nonzero;"/><path
  d="M69.209,17.071c0,-0.751 -0.325,-2.008 -1.744,-2.008c-1.299,0 -1.826,1.175 -1.907,2.008l3.651,0Zm-3.632,2.11c0.101,1.276 1.36,1.884 2.799,1.884c1.055,0 1.907,-0.14 2.74,-0.403l0.404,2.087c-1.013,0.407 -2.251,0.632 -3.589,0.632c-3.368,0 -5.296,-1.969 -5.296,-5.073c0,-2.516 1.562,-5.294 5.012,-5.294c3.204,0 4.422,2.495 4.422,4.949c0,0.526 -0.061,0.994 -0.101,1.218l-6.391,0Z"
  class="brand-fill" fill="#c1c1c1;" style="fill:#c1c1c1;fill-rule:nonzero;"/><path
  d="M73.894,20.457c0.568,0.347 1.745,0.751 2.658,0.751c0.932,0 1.319,-0.324 1.319,-0.83c0,-0.509 -0.306,-0.751 -1.462,-1.136c-2.05,-0.691 -2.84,-1.806 -2.82,-2.963c0,-1.867 1.583,-3.264 4.037,-3.264c1.156,0 2.191,0.262 2.8,0.569l-0.549,2.128c-0.445,-0.243 -1.297,-0.569 -2.149,-0.569c-0.751,0 -1.176,0.305 -1.176,0.812c0,0.467 0.385,0.709 1.602,1.136c1.886,0.649 2.678,1.602 2.698,3.063c0,1.847 -1.461,3.227 -4.3,3.227c-1.3,0 -2.455,-0.307 -3.206,-0.712l0.548,-2.212Z"
  class="brand-fill" fill="#c1c1c1;" style="fill:#c1c1c1;fill-rule:nonzero;"/></svg>
